<svg xmlns="http://www.w3.org/2000/svg" width="87" height="27.496" viewBox="0 0 87 27.496">
  <g id="Group_1150" data-name="Group 1150" transform="translate(-1477 -34.504)">
    <g id="Group_1149" data-name="Group 1149">
      <g id="Group_1148" data-name="Group 1148">
        <text id="Login" transform="translate(1516 55)" fill="#1d1e24" font-size="16" letter-spacing="0.04em"><tspan x="0" y="0">Login</tspan></text>
        <path id="c8fbea57a3a6be7d76ca3fedfe3d9d12" d="M14.748,2A13.748,13.748,0,1,0,28.5,15.748,13.762,13.762,0,0,0,14.748,2ZM6.438,25.38a10.355,10.355,0,0,1,8.046-4.043c.049,0,.1.014.144.014h.047c.045,0,.085-.012.13-.014A10.341,10.341,0,0,1,22.92,25.5,12.685,12.685,0,0,1,6.438,25.38Zm8.2-5.07c-.051,0-.1.008-.15.01a4.552,4.552,0,1,1,.323,0c-.057,0-.114-.012-.173-.012Zm9.04,4.5a11.372,11.372,0,0,0-6.334-4.171,5.588,5.588,0,1,0-5.387,0A11.388,11.388,0,0,0,5.69,24.692a12.74,12.74,0,1,1,17.984.12Z" transform="translate(1476 32.504)" fill="#1d1e24"/>
      </g>
    </g>
  </g>
</svg>
