<svg xmlns="http://www.w3.org/2000/svg" xmlns:xlink="http://www.w3.org/1999/xlink" width="56.723" height="56.723" viewBox="0 0 56.723 56.723">
  <defs>
    <clipPath id="clip-path">
      <path id="Path_501" data-name="Path 501" d="M0-47.5H56.723V9.223H0Z" transform="translate(0 47.5)"/>
    </clipPath>
  </defs>
  <g id="_92f964603344df6cf649bb0580700e58" data-name="92f964603344df6cf649bb0580700e58" clip-path="url(#clip-path)">
    <path id="Path_499" data-name="Path 499" d="M53.252-19.624A25.376,25.376,0,0,1,27.876,5.752,25.377,25.377,0,0,1,2.5-19.624,25.378,25.378,0,0,1,27.876-45,25.377,25.377,0,0,1,53.252-19.624" transform="translate(0.485 47.985)" fill="#ffcc4d"/>
    <path id="Path_500" data-name="Path 500" d="M14.114-29.515A2.924,2.924,0,0,1,17.1-32.5a2.924,2.924,0,0,1,2.985,2.985v2.985A2.924,2.924,0,0,1,17.1-23.544a2.924,2.924,0,0,1-2.985-2.985Zm17.913,0A2.924,2.924,0,0,1,35.012-32.5,2.924,2.924,0,0,1,38-29.515v2.985a2.924,2.924,0,0,1-2.985,2.985,2.924,2.924,0,0,1-2.985-2.985ZM12.121-6.57a.748.748,0,0,0,.948.043,24.285,24.285,0,0,1,12.987-4.329A24.355,24.355,0,0,1,39.043-6.527a.746.746,0,0,0,.948-.042.746.746,0,0,0,.14-.938c-.193-.321-4.8-7.826-14.075-7.826S12.172-7.828,11.981-7.507a.745.745,0,0,0,.14.937" transform="translate(2.306 50.413)" fill="#664500"/>
  </g>
</svg>
