<svg xmlns="http://www.w3.org/2000/svg" width="45.147" height="53.118" viewBox="0 0 45.147 53.118">
  <g id="Group_835" data-name="Group 835" transform="translate(-242.852 -1848.882)">
    <path id="Path_272" data-name="Path 272" d="M26.073,13.124a5.312,5.312,0,1,0-5.312-5.312A5.312,5.312,0,0,0,26.073,13.124ZM45.993,50.306H43.337V37.026a2.656,2.656,0,0,0-2.656-2.656H27.4V29.059H40.681a2.656,2.656,0,0,0,0-5.312H27.4V18.435a2.656,2.656,0,0,0-5.312,0V37.026a2.656,2.656,0,0,0,2.656,2.656H38.025V52.962a2.656,2.656,0,0,0,2.656,2.656h5.312a2.656,2.656,0,1,0,0-5.312Z" transform="translate(239.351 1846.382)" fill="#414042"/>
    <path id="Path_282" data-name="Path 282" d="M27.933,46.056A10.619,10.619,0,1,1,15.184,29.962a2.664,2.664,0,0,0-2.125-4.887A15.935,15.935,0,1,0,32.182,49.243a2.656,2.656,0,0,0-4.249-3.187Z" transform="translate(239.351 1846.382)" fill="#d00000"/>
  </g>
</svg>
