<svg id="Group_939" data-name="Group 939" xmlns="http://www.w3.org/2000/svg" width="15.95" height="26.584" viewBox="0 0 15.95 26.584">
  <g id="Group_754" data-name="Group 754" transform="translate(6.023 2.002)">
    <g id="db77c8aeb70fc2abb3c3a92f670ca333">
      <path id="Path_329" data-name="Path 329" d="M14.949,6.9A2.949,2.949,0,1,1,17.9,3.949,2.952,2.952,0,0,1,14.949,6.9Zm0-4.537a1.588,1.588,0,1,0,1.588,1.588A1.59,1.59,0,0,0,14.949,2.361Z" transform="translate(-10.185 -1)" fill="#fff"/>
      <path id="Path_330" data-name="Path 330" d="M13.924,35.46A4.976,4.976,0,0,0,4,35.977v3.592a2.048,2.048,0,0,0,1.361,1.926v5.24a2.038,2.038,0,0,0,3.4,1.518,2.038,2.038,0,0,0,3.4-1.518v-4.9a.681.681,0,0,0-1.361,0v4.9a.681.681,0,1,1-1.361,0V39.569a.681.681,0,1,0-1.361,0v7.166a.681.681,0,1,1-1.361,0V40.93a.68.68,0,0,0-.681-.681.683.683,0,0,1-.681-.681V35.977a3.614,3.614,0,0,1,7.2-.408v4a.681.681,0,1,0,1.361,0V35.53A.371.371,0,0,0,13.924,35.46Z" transform="translate(-4 -24.195)" fill="#fff"/>
    </g>
  </g>
  <path id="Subtraction_3" data-name="Subtraction 3" d="M3.406,24.581a2.043,2.043,0,0,1-2.041-2.039V17.3A2.049,2.049,0,0,1,0,15.375V11.781A4.98,4.98,0,0,1,8.317,8.089a8.812,8.812,0,0,0-1.2.779,3.577,3.577,0,0,0-2.143-.7,3.615,3.615,0,0,0-3.61,3.613v3.593a.683.683,0,0,0,.683.68.679.679,0,0,1,.676.68v5.807a.683.683,0,0,0,1.365,0V15.375a.679.679,0,1,1,1.358,0v7.167a.684.684,0,0,0,.032.207,3.266,3.266,0,0,1-.872,1.437A2.037,2.037,0,0,1,3.406,24.581ZM4.765,5.9A2.95,2.95,0,1,1,7.717,2.95,2.952,2.952,0,0,1,4.765,5.9Zm0-4.539A1.589,1.589,0,1,0,6.354,2.95,1.59,1.59,0,0,0,4.765,1.361Z" fill="#fff"/>
</svg>
