<svg xmlns="http://www.w3.org/2000/svg" width="26.603" height="19.193" viewBox="0 0 26.603 19.193">
  <path id="_95c7183c18fcf8ec541d425070875525" data-name="95c7183c18fcf8ec541d425070875525" d="M21.753,14.13c1.553-3.566.6-5.834-.185-6.927A5.426,5.426,0,0,0,16.334,5c-3.292.628-4.7,2.86-4.7,7.467v3.847L9.713,14.39a.831.831,0,1,0-1.176,1.176l3.345,3.344a.893.893,0,0,0,1.217,0l3.362-3.36a.831.831,0,1,0-1.176-1.176L13.3,16.357V12.468c0-4.8,1.651-5.51,3.342-5.834a3.774,3.774,0,0,1,3.57,1.536c1.117,1.561.9,3.877-.6,6.518a.831.831,0,0,0,.868,1.23,8.663,8.663,0,0,1,1.181-.126,3.326,3.326,0,0,1-.043,6.652l-16.506.01a4.219,4.219,0,0,1-3.447-4.167A4.162,4.162,0,0,1,5.231,14.2l.715-.1a.831.831,0,0,0,.713-.823l-.013-.885c0-2.978,1.841-5.425,4.37-5.819a.831.831,0,1,0-.258-1.643c-3.342.52-5.77,3.658-5.775,7.459L5,12.551a5.84,5.84,0,0,0-.008,11.556H21.615a4.989,4.989,0,0,0,.138-9.976Z" transform="translate(0 -4.913)" fill="#fff"/>
</svg>
