<svg id="_4e9b76cd90ebd0de2078e027d18a13fe" data-name="4e9b76cd90ebd0de2078e027d18a13fe" xmlns="http://www.w3.org/2000/svg" width="36.561" height="44.188" viewBox="0 0 36.561 44.188">
  <path id="Path_3639" data-name="Path 3639" d="M0,0H36.561V44.188H0Z" fill="none"/>
  <path id="Color_Fill_21" data-name="Color Fill 21" d="M13.959,42.893A3.6,3.6,0,0,1,10.605,39.1V35.3H7.252A3.6,3.6,0,0,1,3.9,31.508V8.713A3.6,3.6,0,0,1,7.252,4.918H13.66a2.4,2.4,0,0,1,2.256-2.53,2.4,2.4,0,0,1,2.256,2.53h6.4a3.6,3.6,0,0,1,3.353,3.795v3.795h3.353A3.6,3.6,0,0,1,34.634,16.3V27.688A6.937,6.937,0,0,1,32.4,33.38l-6.706,7.59a6.24,6.24,0,0,1-5.588,1.9Zm0-3.795h5.588V31.864c-.011-3.329,2.382-6.04,5.349-6.059h6.391V16.318H13.959ZM22.9,31.864V38.71a2.593,2.593,0,0,0,.423-.4l6.706-7.59a10.553,10.553,0,0,0,.912-1.113H24.9a2.142,2.142,0,0,0-2,2.254ZM13.141,35.3Zm-2.536-3.795V16.315a3.6,3.6,0,0,1,3.353-3.795H24.577V8.726H22.27a2.306,2.306,0,0,1-2.165,1.9H11.724a2.306,2.306,0,0,1-2.165-1.9H7.252V31.512Z" transform="translate(-0.935 -0.572)" fill="#ec5a54"/>
</svg>
