<svg xmlns="http://www.w3.org/2000/svg" width="32.347" height="28.817" viewBox="0 0 32.347 28.817">
  <g id="Iconly_Light-Outline_Camera" data-name="Iconly/Light-Outline/Camera" transform="translate(-2 -3)">
    <g id="Camera" transform="translate(2 3)">
      <path id="Combined-Shape" d="M21.539.573a4.517,4.517,0,0,1,2.21,2.046l.2.343.732,1.4L24.7,4.4h0l.022.034.062.085a1.92,1.92,0,0,0,1.259.582,6.3,6.3,0,0,1,6.295,5.977l.008.324v9.373a8.04,8.04,0,0,1-7.69,8.031l-.349.007H8.038a8.039,8.039,0,0,1-8.031-7.69L0,20.779V11.406A6.3,6.3,0,0,1,6.3,5.1a1.926,1.926,0,0,0,1.259-.582l.011-.014h0l.014-.019.083-.128.729-1.4A4.8,4.8,0,0,1,10.807.573C12.73-.191,19.618-.191,21.539.573ZM11.7,2.827a2.318,2.318,0,0,0-1.028,1.044l-.15.26L9.9,5.335l-.153.277a3.36,3.36,0,0,1-.4.551A4.365,4.365,0,0,1,6.584,7.519L6.3,7.531l-.265.009a3.877,3.877,0,0,0-3.6,3.6l-.009.265v9.373a5.613,5.613,0,0,0,5.3,5.6l.308.008H24.309a5.614,5.614,0,0,0,5.6-5.3l.008-.308V11.406A3.877,3.877,0,0,0,26.31,7.54l-.265-.009-.282-.012A4.358,4.358,0,0,1,23,6.163a3.365,3.365,0,0,1-.4-.546l-.03-.052h0L22.533,5.5l-.188-.352-.524-1.015A3.021,3.021,0,0,0,20.794,2.9l-.152-.073-.193-.064C18.784,2.293,12.995,2.314,11.7,2.827Zm4.469,7.2a6.355,6.355,0,1,1-6.355,6.355A6.354,6.354,0,0,1,16.173,10.026Zm0,2.426A3.929,3.929,0,1,0,20.1,16.381,3.928,3.928,0,0,0,16.173,12.452Zm8.9-3.557a1.617,1.617,0,0,1,.189,3.224l-.189.011a1.617,1.617,0,0,1-.2-3.224Z" transform="translate(0 0)" fill="#d8d8d8"/>
    </g>
  </g>
</svg>
