<svg xmlns="http://www.w3.org/2000/svg" xmlns:xlink="http://www.w3.org/1999/xlink" width="234" height="103" viewBox="0 0 234 103">
  <defs>
    <clipPath id="clip-path">
      <rect id="Rectangle_454" data-name="Rectangle 454" width="234" height="103" rx="14" transform="translate(29 411)" fill="#ec5a54" stroke="#707070" stroke-width="1"/>
    </clipPath>
  </defs>
  <g id="Mask_Group_13" data-name="Mask Group 13" transform="translate(-29 -411)" clip-path="url(#clip-path)">
    <g id="_5956084c0174521cec02360d70146de7" data-name="5956084c0174521cec02360d70146de7" transform="translate(67.471 398.997)">
      <path id="Path_479" data-name="Path 479" d="M6.594,166a2.594,2.594,0,0,0,2.594-2.594V134.752a16.329,16.329,0,0,1,7.892-13.932l20.309-12.188,11.145,13.932a2.6,2.6,0,0,0,1.883.97l.145.005a2.6,2.6,0,0,0,1.837-.758l6.086-6.086v46.714a2.594,2.594,0,0,0,5.189,0V111.543l-.005-.031,2.594-2.6,2.6,2.6-.005.031v51.866a2.594,2.594,0,1,0,5.189,0V116.7l6.086,6.086a2.594,2.594,0,0,0,1.837.758l.145-.005a2.6,2.6,0,0,0,1.883-.97l11.145-13.932,20.314,12.188a16.344,16.344,0,0,1,7.882,13.932v28.657a2.594,2.594,0,0,0,5.189,0V134.752a21.54,21.54,0,0,0-10.409-18.378L96.193,103.22l-8.219-9.132a2.537,2.537,0,0,0-2.74-.643v-9.2A32.035,32.035,0,0,0,98.346,58.421V46.2l4.042-22.524A15.717,15.717,0,0,0,89.51,5.366L58.6.214a15.393,15.393,0,0,0-17.823,13.21A13.206,13.206,0,0,0,30.3,29.162l3.819,17.875c.005.036.031.052.036.078v11.3A32.044,32.044,0,0,0,47.263,84.24v9.194a2.553,2.553,0,0,0-2.714.649l-8.214,9.127L14.409,116.368A21.554,21.554,0,0,0,4,134.752v28.657A2.594,2.594,0,0,0,6.594,166Zm84.534-60.661-9.376,11.721L70.7,106.006,85.416,99ZM36.974,21.368A7.975,7.975,0,0,1,43.206,18.4,2.915,2.915,0,0,0,45.8,15.453,10.237,10.237,0,0,1,56.053,5.2a10.377,10.377,0,0,1,1.692.14l30.914,5.152a10.514,10.514,0,0,1,8.618,12.261l-3.233,18.01-5.531-6.268V28.913a2.594,2.594,0,0,0-2.594-2.594H46.579a2.594,2.594,0,0,0-2.594,2.594v5.562l-5.863,6.512-2.755-12.9a8.006,8.006,0,0,1,1.608-6.714ZM39.34,58.416V47.39L48.509,37.2a2.584,2.584,0,0,0,.664-1.733V31.507H83.325v3.964a2.581,2.581,0,0,0,.649,1.717l9.184,10.4V58.416A26.914,26.914,0,0,1,81.286,80.722l-.01.005a26.927,26.927,0,0,1-4.011,2.179c-.638.285-1.3.508-1.961.742a27.78,27.78,0,0,1-4.831,1.25c-.477.078-.965.1-1.448.145a27.678,27.678,0,0,1-5.562,0c-.477-.052-.965-.067-1.437-.145a27.765,27.765,0,0,1-4.82-1.25c-.664-.233-1.333-.462-1.982-.747a26.913,26.913,0,0,1-3.99-2.169l-.036-.021a26.914,26.914,0,0,1-11.856-22.3ZM55.135,88.489c.306.109.6.233.908.332a31.621,31.621,0,0,0,20.407,0c.311-.1.612-.223.924-.337.711-.265,1.417-.545,2.107-.856.187-.083.384-.145.571-.233V95.8l-13.786,6.569L52.452,95.79V87.4c.182.088.374.145.555.228.7.311,1.406.6,2.127.861ZM47.113,99l14.72,7.01L50.776,117.064,41.4,105.342,47.113,99Z" transform="translate(0 0)" fill="#ee6848"/>
      <path id="Path_480" data-name="Path 480" d="M18.748,59.725a2.594,2.594,0,0,0,2.594-2.594V44.979a21.377,21.377,0,0,0-5.609-14.456l-3.928-4.3a2.6,2.6,0,1,0-3.834,3.5l3.928,4.3a16.189,16.189,0,0,1,4.255,10.953V57.131a2.594,2.594,0,0,0,2.594,2.594Zm74.4-33.5-3.928,4.307a21.367,21.367,0,0,0-5.609,14.451V57.131a2.594,2.594,0,0,0,5.189,0V44.979a16.207,16.207,0,0,1,4.25-10.953l3.928-4.3a2.595,2.595,0,1,0-3.829-3.5Z" transform="translate(13.789 106.278)" fill="#ee6848"/>
    </g>
    <path id="Path_481" data-name="Path 481" d="M5.941,124.17a1.941,1.941,0,0,0,1.941-1.941V100.794a12.214,12.214,0,0,1,5.9-10.421l15.191-9.117,8.337,10.421a1.948,1.948,0,0,0,1.409.726l.109,0A1.945,1.945,0,0,0,40.2,91.84l4.553-4.553v34.942a1.941,1.941,0,0,0,3.881,0v-38.8l0-.023,1.941-1.944,1.944,1.944,0,.023v38.8a1.941,1.941,0,1,0,3.881,0V87.288l4.553,4.553a1.941,1.941,0,0,0,1.374.567l.109,0a1.948,1.948,0,0,0,1.409-.726l8.337-10.421L87.37,90.373a12.225,12.225,0,0,1,5.9,10.421v21.435a1.941,1.941,0,0,0,3.881,0V100.794a16.111,16.111,0,0,0-7.785-13.747l-16.4-9.839-6.148-6.831a1.9,1.9,0,0,0-2.049-.481V63.015A23.962,23.962,0,0,0,74.57,43.7V34.555l3.023-16.848A11.756,11.756,0,0,0,67.961,4.015L44.837.161a11.514,11.514,0,0,0-13.332,9.881,9.878,9.878,0,0,0-7.836,11.771l2.856,13.37c0,.027.023.039.027.058V43.7a23.969,23.969,0,0,0,9.808,19.316v6.877a1.909,1.909,0,0,0-2.03.485L28.187,77.2l-16.4,9.842A16.122,16.122,0,0,0,4,100.794v21.435a1.941,1.941,0,0,0,1.941,1.941ZM69.171,78.8l-7.013,8.767-8.271-8.271L64.9,74.049ZM28.664,15.984a5.965,5.965,0,0,1,4.661-2.224,2.181,2.181,0,0,0,1.941-2.2,7.657,7.657,0,0,1,7.669-7.673,7.762,7.762,0,0,1,1.265.1L67.324,7.845a7.864,7.864,0,0,1,6.447,9.171L71.353,30.488,67.215,25.8V21.627a1.941,1.941,0,0,0-1.941-1.941H35.848a1.941,1.941,0,0,0-1.941,1.941v4.161l-4.386,4.871-2.061-9.652a5.989,5.989,0,0,1,1.2-5.022ZM30.434,43.7V35.448l6.858-7.619a1.933,1.933,0,0,0,.5-1.3V23.568H63.334v2.965a1.931,1.931,0,0,0,.485,1.285l6.87,7.782v8.1a20.131,20.131,0,0,1-8.88,16.685l-.008,0a20.142,20.142,0,0,1-3,1.63c-.477.213-.974.38-1.467.555a20.78,20.78,0,0,1-3.613.935c-.357.058-.722.074-1.083.109a20.7,20.7,0,0,1-4.161,0c-.357-.039-.722-.05-1.075-.109a20.769,20.769,0,0,1-3.606-.935c-.5-.175-1-.345-1.483-.559a20.13,20.13,0,0,1-2.985-1.622l-.027-.016A20.131,20.131,0,0,1,30.434,43.7ZM42.248,66.19c.229.081.45.175.679.248a23.652,23.652,0,0,0,15.264,0c.233-.078.458-.167.691-.252.532-.2,1.06-.408,1.576-.64.14-.062.287-.109.427-.175v6.287L50.573,76.572,40.242,71.651V65.375c.136.066.279.109.415.171.52.233,1.052.446,1.591.644Zm-6,7.859,11.011,5.243-8.271,8.271L31.975,78.8l4.273-4.747Z" transform="translate(156.715 431.532)" fill="#ee6848"/>
    <path id="Path_482" data-name="Path 482" d="M16.588,53.249a2.105,2.105,0,0,0,2.105-2.105V41.283a17.347,17.347,0,0,0-4.551-11.73l-3.187-3.49A2.107,2.107,0,1,0,7.843,28.9l3.187,3.49a13.137,13.137,0,0,1,3.453,8.888v9.861a2.105,2.105,0,0,0,2.105,2.105ZM76.957,26.062,73.77,29.557a17.338,17.338,0,0,0-4.551,11.726v9.861a2.105,2.105,0,0,0,4.21,0V41.283a13.151,13.151,0,0,1,3.448-8.888l3.187-3.49a2.105,2.105,0,1,0-3.107-2.842Z" transform="translate(185.284 502.453)" fill="#ee6848"/>
  </g>
</svg>
