<svg xmlns="http://www.w3.org/2000/svg" width="61.085" height="54.361" viewBox="0 0 61.085 54.361">
  <g id="_92bec07eeb78b2e80bc6a05ff52616bc" data-name="92bec07eeb78b2e80bc6a05ff52616bc" transform="translate(-1 -1.404)">
    <path id="Path_6" data-name="Path 6" d="M21.712,7.1a11.333,11.333,0,0,1,19.662,0l19.4,33.82a9.914,9.914,0,0,1-8.6,14.847H10.914a9.914,9.914,0,0,1-8.6-14.847Zm9.831-.6a6.243,6.243,0,0,0-5.415,3.137L6.73,43.451a4.824,4.824,0,0,0,4.185,7.224H52.171a4.824,4.824,0,0,0,4.184-7.224l-19.4-33.82A6.243,6.243,0,0,0,31.543,6.495Z" transform="translate(0 0)" fill="#ec5a54" fill-rule="evenodd"/>
    <path id="Path_7" data-name="Path 7" d="M9.045,4.389A2.545,2.545,0,0,1,11.59,6.934V20.28a2.545,2.545,0,1,1-5.09,0V6.934A2.545,2.545,0,0,1,9.045,4.389Zm0,23.446A2.545,2.545,0,0,1,11.59,30.38V31.59a2.545,2.545,0,1,1-5.09,0V30.38A2.545,2.545,0,0,1,9.045,27.835Z" transform="translate(22.497 12.21)" fill="#ec5a54" fill-rule="evenodd"/>
  </g>
</svg>
