<svg xmlns="http://www.w3.org/2000/svg" width="20.992" height="22.9" viewBox="0 0 20.992 22.9">
  <path id="Save" d="M37.8,17.208l-3.117-3.117a.628.628,0,0,0-.445-.191h-16.6a.638.638,0,0,0-.636.636V36.164a.638.638,0,0,0,.636.636H37.356a.638.638,0,0,0,.636-.636V17.685A.647.647,0,0,0,37.8,17.208Zm-16.348-2H33.539V25.382H21.453ZM36.719,35.56H18.272V15.2h1.908V26.018a.638.638,0,0,0,.636.636H34.175a.638.638,0,0,0,.636-.636V16.031l1.908,1.908ZM32.2,17.271v6.043a.636.636,0,1,1-1.272,0V17.271a.636.636,0,0,1,1.272,0Z" transform="translate(-17 -13.9)" fill="#fff"/>
</svg>
