<svg xmlns="http://www.w3.org/2000/svg" width="31" height="47" viewBox="0 0 31 47">
  <g id="Group_925" data-name="Group 925" transform="translate(-121 -298)">
    <g id="Group_924" data-name="Group 924" transform="translate(-5)">
      <path id="Path_409" data-name="Path 409" d="M20,10c-1.65,0-2.85.15-4.22-.87-3,1-4.75.87-7.78.87A1,1,0,0,1,7,9V6.39A5.4,5.4,0,0,1,12.39,1h2.76a4,4,0,0,1,3.57,2.21l.07.07A4,4,0,0,1,21,6.85V9A1,1,0,0,1,20,10ZM16,7a1,1,0,0,1,.71.29,2.43,2.43,0,0,0,1.7.71H19V6.85a2,2,0,0,0-1.11-1.78c-.64-.33-.61-.28-1-1A2,2,0,0,0,15.15,3H12.39A3.39,3.39,0,0,0,9,6.39V8a16.55,16.55,0,0,0,6-.72C15.77,7,15.8,7,16,7Z" transform="translate(125 297)" fill="#fff"/>
      <path id="Path_410" data-name="Path 410" d="M14,19a6,6,0,0,1-6-6V9a1,1,0,0,1,2,0v4a4,4,0,0,0,8,0V9a1,1,0,0,1,2,0v4a6,6,0,0,1-6,6Z" transform="translate(125 297)" fill="#fff"/>
      <path id="Path_411" data-name="Path 411" d="M2,47a1,1,0,0,1-1-1V24.58a5,5,0,0,1,4.45-5L10,19.1V17a1,1,0,0,1,2,0v3a1,1,0,0,1-.89,1l-5.44.6A3,3,0,0,0,3,24.6V46a1,1,0,0,1-1,1Zm24,0a1,1,0,0,1-1-1V23.958a1,1,0,0,1,2,0V46A1,1,0,0,1,26,47Zm-.13-22.43a1,1,0,0,1-1-.75,3,3,0,0,0-2.57-2.23L16.89,21A1,1,0,0,1,16,20V17a1,1,0,0,1,2,0v2.11l4.54.5a5,5,0,0,1,4.29,3.71,1,1,0,0,1-.96,1.25Z" transform="translate(125 297)" fill="#fff"/>
      <path id="Path_412" data-name="Path 412" d="M14,23.34c-2.35,0-3.44-1.37-4.61-2.53a1,1,0,0,1,1.42-1.42l1.07,1.07a3,3,0,0,0,4.24,0l1.07-1.07a1,1,0,1,1,1.42,1.42c-1.26,1.25-2.29,2.53-4.61,2.53Z" transform="translate(125 297)" fill="#fff"/>
      <path id="Path_413" data-name="Path 413" d="M6,33H2a1,1,0,0,1,0-2H6a1,1,0,0,1,0,2Zm21-9.45a1,1,0,0,1-2,0Z" transform="translate(125 297)" fill="#fff"/>
      <path id="Path_414" data-name="Path 414" d="M6,33H2a1,1,0,0,1,0-2H6a1,1,0,0,1,0,2Z" transform="translate(145 297)" fill="#fff"/>
      <path id="Path_415" data-name="Path 415" d="M222.822,299.517v17.045" transform="translate(-91 27)" fill="#fff" stroke="#fff" stroke-linecap="round" stroke-width="2"/>
      <path id="Path_416" data-name="Path 416" d="M222.822,299.517V303" transform="translate(-77 27)" fill="#fff" stroke="#fff" stroke-linecap="round" stroke-width="2"/>
    </g>
    <path id="Path_417" data-name="Path 417" d="M47,35v4.92A7.18,7.18,0,0,1,41,47a7.18,7.18,0,0,1-6-7.08V35a3.25,3.25,0,0,0,3-2h6l.11.21A3.22,3.22,0,0,0,47,35Z" transform="translate(105 298)" fill="#fff"/>
    <path id="Path_418" data-name="Path 418" d="M40,43c-.54,0-.57-.15-2.71-2.29a1,1,0,0,1,1.42-1.42L40,40.59l3.29-3.3a1,1,0,1,1,1.42,1.42l-4,4A1,1,0,0,1,40,43Z" transform="translate(105 298)" fill="#ec5a54"/>
  </g>
</svg>
