<svg xmlns="http://www.w3.org/2000/svg" width="56.203" height="56.429" viewBox="0 0 56.203 56.429">
  <g id="_4f63e106ae3ff3b7755f5b67c0ee7b21" data-name="4f63e106ae3ff3b7755f5b67c0ee7b21" transform="translate(0)">
    <path id="Path_634" data-name="Path 634" d="M49.076,62.152a6.076,6.076,0,1,1,6.076-6.076,6.076,6.076,0,0,1-6.076,6.076Zm0-10.127a4.051,4.051,0,1,0,4.051,4.051A4.051,4.051,0,0,0,49.076,52.025Z" transform="translate(-5.025 -5.723)" fill="#3b434f"/>
    <path id="Path_635" data-name="Path 635" d="M49.544,58.3a2.025,2.025,0,1,1,2.025-2.025A2.025,2.025,0,0,1,49.544,58.3ZM49.544,56.279Zm11.139,1.013H54.608a1.013,1.013,0,1,1,0-2.025h6.076a1.013,1.013,0,0,1,0,2.025ZM20.177,62.355A14.177,14.177,0,1,1,34.354,48.177,14.177,14.177,0,0,1,20.177,62.355Zm0-26.329A12.152,12.152,0,1,0,32.329,48.177,12.152,12.152,0,0,0,20.177,36.025Z" transform="translate(-5.494 -5.925)" fill="#3b434f"/>
    <path id="Path_636" data-name="Path 636" d="M20.127,58.253A10.127,10.127,0,1,1,30.253,48.127,10.127,10.127,0,0,1,20.127,58.253Zm0-18.228a8.1,8.1,0,1,0,8.1,8.1A8.1,8.1,0,0,0,20.127,40.025Z" transform="translate(-5.443 -5.875)" fill="#3b434f"/>
    <path id="Path_637" data-name="Path 637" d="M20.038,51.19a3.038,3.038,0,1,1,3.038-3.038A3.038,3.038,0,0,1,20.038,51.19Zm0-4.051a1.013,1.013,0,1,0,1.013,1.013A1.013,1.013,0,0,0,20.038,47.139ZM49.405,52.2a1.013,1.013,0,0,1-1.013-1.013V39.372c0-.729-.466-1.347-1.013-1.347H27.127a1.013,1.013,0,1,1,0-2.025H47.38a3.23,3.23,0,0,1,3.038,3.372V51.19A1.013,1.013,0,0,1,49.405,52.2Z" transform="translate(-5.354 -5.9)" fill="#3b434f"/>
    <path id="Path_638" data-name="Path 638" d="M49.215,49.317h-16.2a1.013,1.013,0,0,1,0-2.025h16.2a1.013,1.013,0,0,1,0,2.025ZM48.2,44.253H43.139a1.013,1.013,0,1,1,0-2.025H48.2a1.013,1.013,0,0,1,0,2.025Zm-10.127,0H33.013a1.013,1.013,0,0,1,0-2.025h5.063a1.013,1.013,0,0,1,0,2.025Zm7.089-6.076h0a1.013,1.013,0,0,1-1.013-1.013V35.139a9.114,9.114,0,0,0-9.114-9.114,1.013,1.013,0,0,1,0-2.025A11.139,11.139,0,0,1,46.177,35.139v2.025A1.013,1.013,0,0,1,45.165,38.177Z" transform="translate(-5.165 -6.052)" fill="#3b434f"/>
    <path id="Path_639" data-name="Path 639" d="M33.329,28.076H10.038a3.038,3.038,0,0,1,0-6.076H33.329a3.038,3.038,0,0,1,0,6.076ZM10.038,24.025a1.013,1.013,0,0,0,0,2.025H33.329a1.013,1.013,0,1,0,0-2.025Z" transform="translate(-5.481 -6.077)" fill="#3b434f"/>
    <path id="Path_640" data-name="Path 640" d="M15.12,36.933a1.013,1.013,0,0,1-.962-.7l-2.835-8.658a1.013,1.013,0,1,1,1.924-.628l2.886,8.658a1.013,1.013,0,0,1-.648,1.276,1.134,1.134,0,0,1-.365.051Zm3.858-1.266a1.013,1.013,0,0,1-.962-.7L15.6,27.576a1.013,1.013,0,1,1,1.924-.628l2.42,7.4a1.013,1.013,0,0,1-.648,1.276,1.134,1.134,0,0,1-.314.041Zm-8.02-11.443a1.013,1.013,0,0,1-1.013-.7L5.652,10.27a3.039,3.039,0,1,1,5.772-1.9L16.184,22.9a1.02,1.02,0,1,1-1.924.678L9.5,9.034a1.013,1.013,0,0,0-1.975.314,1.144,1.144,0,0,0,0,.324L11.87,22.928a1.013,1.013,0,0,1-.6,1.3,1.134,1.134,0,0,1-.314,0Z" transform="translate(-5.5 -6.276)" fill="#3b434f"/>
  </g>
</svg>
