<svg xmlns="http://www.w3.org/2000/svg" width="62.605" height="53.035" viewBox="0 0 62.605 53.035">
  <g id="Group_850" data-name="Group 850" transform="translate(-247.395 -1910.965)">
    <g id="Group_360" data-name="Group 360" transform="translate(247.395 1387)">
      <g id="Path_64" data-name="Path 64" transform="translate(0 528)" fill="none">
        <path d="M24.5,0A24.5,24.5,0,1,1,0,24.5,24.5,24.5,0,0,1,24.5,0Z" stroke="none"/>
        <path d="M 24.5 4 C 19.02425003051758 4 13.87625122070312 6.132369995117188 10.00431060791016 10.00431060791016 C 6.132369995117188 13.87625122070312 4 19.02425003051758 4 24.5 C 4 29.97574996948242 6.132369995117188 35.12374877929688 10.00431060791016 38.99568939208984 C 13.87625122070312 42.86763000488281 19.02425003051758 45 24.5 45 C 29.97574996948242 45 35.12374877929688 42.86763000488281 38.99568939208984 38.99568939208984 C 42.86763000488281 35.12374877929688 45 29.97574996948242 45 24.5 C 45 19.02425003051758 42.86763000488281 13.87625122070312 38.99568939208984 10.00431060791016 C 35.12374877929688 6.132369995117188 29.97574996948242 4 24.5 4 M 24.5 0 C 38.03096771240234 0 49 10.96902084350586 49 24.5 C 49 38.03096771240234 38.03096771240234 49 24.5 49 C 10.96902084350586 49 0 38.03096771240234 0 24.5 C 0 10.96902084350586 10.96902084350586 0 24.5 0 Z" stroke="none" fill="#414042"/>
      </g>
    </g>
    <text id="_3" data-name="3" transform="translate(265 1940)" fill="#414042" font-size="22" font-family="GothamRounded-Bold, Gotham Rounded" font-weight="700"><tspan x="0" y="0">3</tspan></text>
    <text id="YEARS" transform="translate(272 1951)" fill="#414042" font-size="8" font-family="GothamRounded-Bold, Gotham Rounded" font-weight="700"><tspan x="-13.948" y="0">YEARS</tspan></text>
    <path id="Path_275" data-name="Path 275" d="M0,41a2,2,0,0,1,1.042-1.756l11-6a2,2,0,0,1,1.916,0l11,6A2,2,0,0,1,26,41c0,10.081-6.389,15.292-11.955,18.705a2,2,0,0,1-2.09,0C6.389,56.292,0,51.081,0,41ZM12,51a1.993,1.993,0,0,0,1.414-.586l5-5a2,2,0,1,0-2.828-2.828L12,46.172l-1.586-1.586a2,2,0,1,0-2.828,2.828l3,3A1.993,1.993,0,0,0,12,51Z" transform="translate(282 1880)" fill="#d00000" stroke="#fff" stroke-width="4"/>
    <path id="Path_274" data-name="Path 274" d="M0,41a2,2,0,0,1,1.042-1.756l11-6a2,2,0,0,1,1.916,0l11,6A2,2,0,0,1,26,41c0,10.081-6.389,15.292-11.955,18.705a2,2,0,0,1-2.09,0C6.389,56.292,0,51.081,0,41ZM12,51a1.993,1.993,0,0,0,1.414-.586l5-5a2,2,0,1,0-2.828-2.828L12,46.172l-1.586-1.586a2,2,0,1,0-2.828,2.828l3,3A1.993,1.993,0,0,0,12,51Z" transform="translate(282 1880)" fill="#d00000"/>
  </g>
</svg>
