<svg xmlns="http://www.w3.org/2000/svg" xmlns:xlink="http://www.w3.org/1999/xlink" width="56.723" height="56.723" viewBox="0 0 56.723 56.723">
  <defs>
    <clipPath id="clip-path">
      <path id="Path_498" data-name="Path 498" d="M0-47.5H56.723V9.223H0Z" transform="translate(0 47.5)"/>
    </clipPath>
  </defs>
  <g id="c81d55612a0821e8f0068980c48bfb3c" clip-path="url(#clip-path)">
    <path id="Path_493" data-name="Path 493" d="M8.252,4.126A25.376,25.376,0,0,1-17.124,29.5,25.376,25.376,0,0,1-42.5,4.126,25.376,25.376,0,0,1-17.124-21.25,25.376,25.376,0,0,1,8.252,4.126" transform="translate(45.485 24.235)" fill="#ffcc4d"/>
    <path id="Path_494" data-name="Path 494" d="M2.67.252A63.17,63.17,0,0,1-10.765-1.241c-1.014-.2-2.985,0-2.985,2.985,0,5.971,6.859,13.434,16.42,13.434S19.09,7.715,19.09,1.744c0-2.985-1.972-3.182-2.985-2.985A63.17,63.17,0,0,1,2.67.252" transform="translate(25.692 32.588)" fill="#664500"/>
    <path id="Path_495" data-name="Path 495" d="M0,.485A2.924,2.924,0,0,1,2.985-2.5,2.924,2.924,0,0,1,5.971.485V3.471A2.924,2.924,0,0,1,2.985,6.456,2.924,2.924,0,0,1,0,3.471Z" transform="translate(16.42 20.413)" fill="#664500"/>
    <path id="Path_496" data-name="Path 496" d="M0,.485A2.924,2.924,0,0,1,2.985-2.5,2.924,2.924,0,0,1,5.971.485V3.471A2.924,2.924,0,0,1,2.985,6.456,2.924,2.924,0,0,1,0,3.471Z" transform="translate(34.333 20.413)" fill="#664500"/>
    <path id="Path_497" data-name="Path 497" d="M0,0S4.478,1.493,13.434,1.493,26.869,0,26.869,0,23.883,5.971,13.434,5.971,0,0,0,0" transform="translate(14.927 34.333)" fill="#fff"/>
  </g>
</svg>
