<svg xmlns="http://www.w3.org/2000/svg" width="20.92" height="20.92" viewBox="0 0 20.92 20.92">
  <g id="Group_1077" data-name="Group 1077" transform="translate(-24 -966)">
    <path id="Path_509" data-name="Path 509" d="M9,0A9,9,0,1,1,0,9,9,9,0,0,1,9,0Z" transform="translate(26 967)"
      fill="#61a611" />
    <path id="_2107de337f3d7747a4fadbc1d2912bf0" data-name="2107de337f3d7747a4fadbc1d2912bf0"
      d="M21.91,11.45A10.46,10.46,0,1,0,32.37,21.91,10.46,10.46,0,0,0,21.91,11.45Zm0,4.626a1.775,1.775,0,1,1-1.775,1.775A1.775,1.775,0,0,1,21.91,16.076Zm2.367,10.719a.508.508,0,0,1-.508.508H20.052a.508.508,0,0,1-.508-.508v-1a.508.508,0,0,1,.508-.508h.508v-2.7h-.508a.508.508,0,0,1-.508-.508v-1a.508.508,0,0,1,.508-.508h2.692a.508.508,0,0,1,.508.508v4.217h.508a.508.508,0,0,1,.508.508Z"
      transform="translate(12.55 954.55)" fill="#fff" />
  </g>
</svg>