<svg xmlns="http://www.w3.org/2000/svg" width="160.225" height="147.54" viewBox="0 0 160.225 147.54"><g transform="translate(-200.137 -192.501)"><g transform="translate(91.91 108.908)"><path d="M110.761,426.915s-3.565-31.254,27.146-34.741h13.141V386.12s9.244,3.971,18.6.443l.3,5.611H185.3s26.742,2.67,25.125,34.741Z" transform="translate(-1.574 -197.831)" fill="#fff"/><path d="M239.73,442.5l4.153-4.5,4.5,4.5-2.423,2.422,3.807,15.573H238l4.153-15.573Z" transform="translate(-84.862 -231.757)" fill="#3b434f"/><path d="M208.6,437.229H108.228l.477-8.143c.931-15.9,13.458-28.033,27.793-28.033h12.977v1.624H137.368c-13.816,0-25.89,11.679-26.787,26.983l-.331,5.649h98.09l-.183-5.649c-.9-15.3-12.97-26.983-26.787-26.983H169.113v-1.624h13.04c14.335,0,26.862,12.134,27.793,28.033l.477,8.143Z" transform="translate(0 -207.597)" fill="#3b434f"/><path d="M227.331,383.039v9.107a8.564,8.564,0,0,0,17.128,0v-8.919q.745-.227,1.477-.493v9.474a10.115,10.115,0,1,1-20.229,0v-9.755Q226.509,382.771,227.331,383.039Z" transform="translate(-76.823 -195.434)" fill="#3b434f"/><path d="M320.633,443.764l-4.182,8.723a.886.886,0,1,1-1.6-.766l4.039-8.425-3.156-5.467a.886.886,0,0,1,1.535-.886l3.4,5.882A.885.885,0,0,1,320.633,443.764Z" transform="translate(-135.061 -230.777)" fill="#3b434f"/><path d="M178.074,443.747l4.2,8.75a.89.89,0,0,0,1.606-.768l-4.061-8.451L183,437.794a.89.89,0,0,0-1.543-.889l-3.414,5.9A.886.886,0,0,0,178.074,443.747Z" transform="translate(-45.574 -230.751)" fill="#3b434f"/><path d="M225.707,400.2h1.624v35.881h-1.624Z" transform="translate(-76.823 -207.039)" fill="#3b434f"/><path d="M279.893,401.053h1.624v35.881h-1.624Z" transform="translate(-112.257 -207.597)" fill="#3b434f"/><path d="M248.391,472.523l-4.185-15.62.87-.261.577-.613,4.427,16.521Zm-11.806-.184,4.37-16.234.282.242.886.591.292.029-4.145,15.4Z" transform="translate(-83.937 -243.547)" fill="#3b434f" fill-rule="evenodd"/><path d="M246.768,445.221l-1.148,1.149-4.469-4.469a4.866,4.866,0,0,1-8.347-.168l-4.665,4.665-1.152-1.152,9.184-9.184.718-.666.718.666Zm-13.061-4.392a3.613,3.613,0,0,0,6.451.079l-3.265-3.265Z" transform="translate(-77.661 -230.054)" fill="#3b434f" fill-rule="evenodd"/><path d="M195.181,125.427c18.7,0,32.922,16.4,32.161,35.162l-1.033,25.464c-2.926,17.288-14.845,29.769-31,31.512-15.756-1.656-27.909-14.229-31.258-31.512l-1.033-25.464C162.26,141.825,176.483,125.427,195.181,125.427Z" transform="translate(-35.812 -27.356)" fill="#fff"/><path d="M225.493,154.486l-1.1,26.606c-3.114,18.064-15.8,31.105-32.99,32.926-16.769-1.73-29.7-14.867-33.268-32.926l-1.1-26.606c-.81-19.606,14.328-36.74,34.229-36.74S226.3,134.881,225.493,154.486Zm-34.226-34.673c-18.7,0-32.922,16.4-32.161,35.162l1.033,25.464c3.35,17.284,15.5,29.856,31.258,31.512,16.153-1.743,28.071-14.224,31-31.512l1.033-25.464C224.188,136.212,209.964,119.814,191.266,119.814Z" transform="translate(-31.896 -22.334)" fill="#3b434f" fill-rule="evenodd"/><path d="M242.2,324.362c-2.684,2.33-8.746,4.548-15.8,4.548s-13.115-2.217-15.8-4.548c0,0-.275-.756.128-1.158a1.365,1.365,0,0,1,1.053-.321c2.681,2.332,7.562,4.255,14.618,4.255s11.937-1.923,14.618-4.255c0,0,.656-.244.974.075A1.247,1.247,0,0,1,242.2,324.362Z" transform="translate(-66.885 -156.42)" fill="#3b434f"/><path d="M242.347,350.707h9.45v1.477h-9.45Z" transform="translate(-87.704 -174.674)" fill="#3b434f"/><path d="M143.993,231.953a3.582,3.582,0,0,0-1.039-.5,4.883,4.883,0,0,0-1.238-.215c-.12-.005-.243-.007-.369,0s-.255.012-.386.026a4.732,4.732,0,0,0-.805.157,4.332,4.332,0,0,0-2.856,2.648,8.881,8.881,0,0,0-.6,3.013q-.021.464-.012.976t.052,1.073c.057.749.159,1.565.311,2.455a18.254,18.254,0,0,0,.82,5.78c.9,3.022,3.075,6.734,7.083,7.795-.461-7.676-.475-15.5-.957-23.2Z" transform="translate(-18.608 -96.547)" fill="#fff"/><path d="M142.776,229.44s-6.982-2.164-6.737,5.015c0,0,1.04,10.409,1.491,11.368,0,0,2.742,6.06,7.268,6.329h0l.055,1.953s-7.954-1.02-9.491-10.186l-1.213-8.327s-.942-11.021,8.191-8.218h0l.435,2.067" transform="translate(-16.933 -93.724)" fill="#3b434f"/><path d="M148.37,258.046a1.506,1.506,0,0,1-.726.3,1.48,1.48,0,0,1-.722-.3l-.721-7.262s.994-3.576,5.213-1.686l.1,2.076s-3.7-1.313-3.625.322C147.963,253.07,148.37,258.046,148.37,258.046Z" transform="translate(-24.832 -107.868)" fill="#3b434f"/><path d="M352,232a3.6,3.6,0,0,1,1.044-.5,4.928,4.928,0,0,1,1.244-.215c.12-.005.244-.007.371,0s.256.012.388.026a4.773,4.773,0,0,1,.809.157,4.343,4.343,0,0,1,2.869,2.646,8.836,8.836,0,0,1,.6,3.011q.022.464.013.975t-.052,1.072c-.057.748-.159,1.564-.312,2.454a18.157,18.157,0,0,1-.823,5.776c-.908,3.02-3.088,6.729-7.114,7.789.463-7.67.477-15.485.961-23.189Z" transform="translate(-158.779 -96.58)" fill="#fff"/><path d="M344.914,229.491s7.013-2.162,6.766,5.011c0,0-1.044,10.4-1.5,11.36,0,0-2.754,6.056-7.3,6.325h0l-.055,1.952s7.989-1.019,9.532-10.18l1.218-8.322s.946-11.013-8.227-8.213h0l-.437,2.065" transform="translate(-152.157 -93.758)" fill="#3b434f"/><path d="M353.2,258.078a1.517,1.517,0,0,0,.73.3,1.491,1.491,0,0,0,.725-.3l.724-7.257s-1-3.574-5.236-1.685l-.1,2.075s3.718-1.312,3.641.322C353.613,253.105,353.2,258.078,353.2,258.078Z" transform="translate(-158.132 -107.894)" fill="#3b434f"/><path d="M257.2,274.333h.517c1.068,1.451,1.5,3.681,2.067,5.611a4.27,4.27,0,0,1-.148,2.067c-.56,1.549-2.318,1.521-3.765,2.215a4.06,4.06,0,0,1-1.181.591c-.328-.289-.724-.346-.886-.812-.4-.549.115-.892.517-1.107.729-.391,2.979-.776,3.248-1.477.333-.379.112-1.519,0-1.92a22.475,22.475,0,0,0-.812-2.805c-.258-.614-.712-1.262-.443-1.993A3.877,3.877,0,0,0,257.2,274.333Z" transform="translate(-95.105 -124.731)" fill="#3b434f" fill-rule="evenodd"/><path d="M200.894,241.48h2.067a2.067,2.067,0,1,1,0,4.134h-2.067a2.067,2.067,0,0,1,0-4.134Z" transform="translate(-59.245 -103.247)" fill="#3b434f"/><path d="M298.174,241.48h2.067a2.067,2.067,0,1,1,0,4.134h-2.067a2.067,2.067,0,1,1,0-4.134Z" transform="translate(-122.86 -103.247)" fill="#3b434f"/><path d="M198.875,269.64c2.854,0,5.168.164,5.168,3.4,0,3.334-2.314,3.4-5.168,3.4s-5.168-.607-5.168-3.4C193.707,269.778,196.02,269.64,198.875,269.64Z" transform="translate(-55.897 -121.662)" fill="#f5f3ef"/><path d="M297.861,269.64c2.854,0,5.168.164,5.168,3.4,0,3.334-2.314,3.4-5.168,3.4s-5.168-.607-5.168-3.4C292.693,269.778,295.007,269.64,297.861,269.64Z" transform="translate(-120.627 -121.662)" fill="#f5f3ef"/><path d="M280.332,218.821s8.84-5.054,15.155.514l1.67.259s-2.14-7.786-17.719-2.723l.434,1.451m.346,0s8.993-5.166,14.923,1.359l3.055-.087s-3.81-8.317-19.449-3.069l1.472,2.143" transform="translate(-111.507 -85.792)" fill="#3b434f"/><path d="M194.8,218.973s-8.811-5.01-15.1.51l-1.665.257s2.132-7.717,17.66-2.7l-.432,1.438m-.345,0s-8.963-5.12-14.873,1.347l-3.045-.086s3.8-8.243,19.384-3.042l-1.467,2.124" transform="translate(-44.966 -85.915)" fill="#3b434f"/><path d="M154.241,129.956s9.722-4.929,8.648-21.879c0,0,15.553,17.041,53.042,11.846L217.7,135.87s22.038-40.836-17.424-50.2c-38.619-9.167-39.064,15.018-39.064,15.018s-11.843-1.77-12.832,9.757,2.578,23.656,2.578,23.656l2.953,2.363Z" transform="translate(-26.145)" fill="#3b434f"/></g><g transform="translate(33.832)"><rect width="64" height="81" transform="translate(256 257)" fill="#fff"/><g transform="translate(253.5 249.656)"><path d="M1099.31,817.794h-64.018A1.8,1.8,0,0,1,1033.5,816v-79.61a1.8,1.8,0,0,1,1.792-1.792h48.765a1.792,1.792,0,0,1,0,3.584h-46.973V814.21h60.434V749.017a1.792,1.792,0,0,1,3.584,0V816A1.791,1.791,0,0,1,1099.31,817.794Z" transform="translate(-1033.5 -727.909)" fill="#3b434f" stroke="#fff" stroke-width="1"/><path d="M1231.991,826.4a15.585,15.585,0,0,0-9.548,27.907l.01.01c.06.04.11.09.169.129h.01a15.589,15.589,0,1,0,9.359-28.047Zm9.359,23.088a12.172,12.172,0,0,1-2.887,2.6,11.963,11.963,0,0,1-12.943,0A12.008,12.008,0,1,1,1244,841.971,11.891,11.891,0,0,1,1241.35,849.488Z" transform="translate(-1198.19 -810.57)" fill="#3b434f" stroke="#fff" stroke-width="1"/><path d="M1310.149,902.6a6.934,6.934,0,1,0,6.949,6.939A6.956,6.956,0,0,0,1310.149,902.6Zm0,3.594a3.365,3.365,0,1,1-3.365,3.365A3.38,3.38,0,0,1,1310.149,906.194Z" transform="translate(-1276.348 -879.183)" fill="#3b434f" stroke="#fff" stroke-width="1"/><path d="M1289.431,1016.914a1.792,1.792,0,0,1-1.792-1.732,5.248,5.248,0,0,0-5.267-5.1h-2.628a5.248,5.248,0,0,0-5.267,5.1,1.793,1.793,0,1,1-3.584-.12,8.861,8.861,0,0,1,8.851-8.562h2.628a8.861,8.861,0,0,1,8.851,8.562,1.8,1.8,0,0,1-1.732,1.852Z" transform="translate(-1247.256 -972.739)" fill="#3b434f" stroke="#fff" stroke-width="1"/><g transform="translate(10.404 55.197)"><path d="M1250.379,1225.384h-18.787a1.792,1.792,0,0,1,0-3.584h18.787a1.792,1.792,0,0,1,0,3.584Zm17.4,0H1258a1.792,1.792,0,1,1,0-3.584h9.787a1.792,1.792,0,0,1,0,3.584Zm-26.653,8.99h-9.538a1.792,1.792,0,1,1,0-3.584h9.538a1.792,1.792,0,0,1,0,3.584Zm26.653,0h-19.275a1.792,1.792,0,0,1,0-3.584h19.275a1.792,1.792,0,1,1,0,3.584Zm-16.587,8.99h-19.6a1.792,1.792,0,0,1,0-3.584h19.6a1.792,1.792,0,0,1,0,3.584Zm16.587,0h-9.309a1.792,1.792,0,1,1,0-3.584h9.309a1.792,1.792,0,0,1,0,3.584Z" transform="translate(-1220.66 -1221.8)" fill="#3b434f" stroke="#fff" stroke-width="1"/><circle cx="1.772" cy="1.772" r="1.772" transform="translate(0 0.02)" fill="#3b434f" stroke="#fff" stroke-width="1"/><circle cx="1.772" cy="1.772" r="1.772" transform="translate(0 9.01)" fill="#3b434f" stroke="#fff" stroke-width="1"/><circle cx="1.772" cy="1.772" r="1.772" transform="translate(0 18.001)" fill="#3b434f" stroke="#fff" stroke-width="1"/></g><g transform="translate(48.058 0)"><path d="M1528.436,667.4a12.254,12.254,0,0,0-12.077,10.275,12.726,12.726,0,0,0-.159,1.961,12.236,12.236,0,1,0,12.236-12.236Zm4.63,19.554h0a.747.747,0,0,1-.119.07.01.01,0,0,0-.01.01h0a8.644,8.644,0,0,1-13.162-7.378,8.407,8.407,0,0,1,.547-3.017v-.01a1.084,1.084,0,0,1,.08-.189h0a8.651,8.651,0,1,1,12.664,10.514Z" transform="translate(-1516.2 -667.4)" fill="#3b434f" stroke="#fff" stroke-width="1"/><path d="M1586.247,753.805h0a1.761,1.761,0,0,1-1.264-.528l-2.31-2.31a1.8,1.8,0,0,1,2.539-2.539l1.035,1.035,4.192-4.192a1.8,1.8,0,0,1,2.539,2.539l-5.456,5.456A1.787,1.787,0,0,1,1586.247,753.805Z" transform="translate(-1575.584 -737.049)" fill="#3b434f" stroke="#fff" stroke-width="1"/></g></g><g transform="translate(-552.288 85.674)"><g transform="translate(817.288 161.847)" fill="#fff" stroke="#3b434f" stroke-width="2"><rect width="10" height="20" rx="5" stroke="none"/><rect x="1" y="1" width="8" height="18" rx="4" fill="none"/></g><g transform="translate(835.288 161.847)" fill="#fff" stroke="#3b434f" stroke-width="2"><rect width="10" height="20" rx="5" stroke="none"/><rect x="1" y="1" width="8" height="18" rx="4" fill="none"/></g><g transform="translate(826.288 161.847)" fill="#fff" stroke="#3b434f" stroke-width="2"><rect width="10" height="22" rx="5" stroke="none"/><rect x="1" y="1" width="8" height="20" rx="4" fill="none"/></g></g></g></g></svg>