<svg xmlns="http://www.w3.org/2000/svg" width="36.225" height="29.145" viewBox="0 0 36.225 29.145">
  <g id="_295c7e0090cff82e8b99aca8d6b85da3" data-name="295c7e0090cff82e8b99aca8d6b85da3" transform="translate(-2.17 -8)">
    <path id="Path_252" data-name="Path 252" d="M32.323,37.145H8.242A6.072,6.072,0,0,1,2.17,31.073v-17A6.072,6.072,0,0,1,3.815,9.913a1.216,1.216,0,1,1,1.773,1.664,3.643,3.643,0,0,0-.99,2.5v17a3.643,3.643,0,0,0,3.643,3.643H32.323a3.643,3.643,0,0,0,3.643-3.643v-17a3.643,3.643,0,0,0-3.643-3.643H9.814A1.214,1.214,0,0,1,9.814,8H32.323a6.072,6.072,0,0,1,6.072,6.072v17A6.072,6.072,0,0,1,32.323,37.145Z" fill="#fff"/>
    <path id="Path_253" data-name="Path 253" d="M23.7,34.531a1.822,1.822,0,0,1-1.822-1.822V22.023a1.822,1.822,0,0,1,2.684-1.6l9.964,5.343A1.214,1.214,0,1,1,33.374,27.9l-9.065-4.857V31.7l5.465-2.933A1.214,1.214,0,1,1,30.921,30.9l-6.357,3.412A1.822,1.822,0,0,1,23.7,34.531Z" transform="translate(-7.742 -4.793)" fill="#ec5a54"/>
  </g>
</svg>
