<svg xmlns="http://www.w3.org/2000/svg" width="57" height="37" viewBox="0 0 57 37">
  <g id="Group_1045" data-name="Group 1045" transform="translate(-451 -364)">
    <rect id="Rectangle_485" data-name="Rectangle 485" width="57" height="37" rx="8" transform="translate(451 364)" fill="#4e505c"/>
    <g id="_1e7f1590adb2a2afc5886930a12e0d82" data-name="1e7f1590adb2a2afc5886930a12e0d82" transform="translate(468 370.016)">
      <path id="Path_506" data-name="Path 506" d="M21,21a1,1,0,0,1-1-1V16H16a1,1,0,0,1,0-2h5a1,1,0,0,1,1,1v5A1,1,0,0,1,21,21ZM8,10H3A1,1,0,0,1,2,9V4A1,1,0,1,1,4,4V8H8a1,1,0,0,1,0,2Z" fill="#fff"/>
      <path id="Path_507" data-name="Path 507" d="M12,22a10,10,0,0,1-9.94-8.892,1.006,1.006,0,1,1,2-.218,8,8,0,0,0,15.5,1.78,1,1,0,1,1,1.88.67A10,10,0,0,1,12,22Zm8.94-10a1,1,0,0,1-1-.89A8,8,0,0,0,4.46,9.33a1,1,0,1,1-1.88-.67,10,10,0,0,1,19.37,2.22,1,1,0,0,1-.88,1.1Z" fill="#fff"/>
    </g>
  </g>
</svg>
