<svg xmlns="http://www.w3.org/2000/svg" xmlns:xlink="http://www.w3.org/1999/xlink" width="234" height="103" viewBox="0 0 234 103">
  <defs>
    <clipPath id="clip-path">
      <rect id="Rectangle_409" data-name="Rectangle 409" width="234" height="103" rx="14" transform="translate(49 411)" fill="#df5550" stroke="#707070" stroke-width="1"/>
    </clipPath>
  </defs>
  <g id="Mask_Group_8" data-name="Mask Group 8" transform="translate(-49 -411)" clip-path="url(#clip-path)">
    <g id="_115beaa8aa8e4d2760a634ae35b6885e" data-name="115beaa8aa8e4d2760a634ae35b6885e" transform="translate(30.728 327.096)">
      <path id="Path_503" data-name="Path 503" d="M15.042,31.011a3.064,3.064,0,1,0-4.523,4.13l2.218,2.427a7.594,7.594,0,0,1,1.986,5.111v6.864a3.064,3.064,0,1,0,6.128,0V42.679a13.673,13.673,0,0,0-3.585-9.241l-2.225-2.427ZM69,30.766a3.058,3.058,0,0,0-.2,4.327,8.6,8.6,0,0,1,2.249,5.81v8.647a3.064,3.064,0,1,0,6.128,0V40.9a14.708,14.708,0,0,0-3.855-9.94,3.064,3.064,0,0,0-4.327-.2Zm52.875.2a14.708,14.708,0,0,0-3.855,9.94v8.647a3.064,3.064,0,1,0,6.128,0V40.9a8.546,8.546,0,0,1,2.255-5.8,3.067,3.067,0,1,0-4.529-4.137Zm58.28.049-2.218,2.427a13.684,13.684,0,0,0-3.585,9.241v6.864a3.064,3.064,0,1,0,6.128,0V42.679a7.565,7.565,0,0,1,1.986-5.111l2.218-2.427a3.065,3.065,0,0,0-4.529-4.13Z" transform="translate(41.623 139.42)" fill="#df5550"/>
      <path id="Path_504" data-name="Path 504" d="M194.165,96,179.592,90.53v-7.06a18.281,18.281,0,0,0,6.122-13.6V64.2a2.948,2.948,0,0,0,.7-1.3l2.856-13.249a10.472,10.472,0,0,0-8.58-12.208l-17.466-2.911a10.3,10.3,0,0,0-11.705,7.74,9.07,9.07,0,0,0-6.061,10.688l2.764,10.093a2.984,2.984,0,0,0,.723,1.2V69.86a18.277,18.277,0,0,0,6.134,13.611v7.048l-14.561,5.466a14.85,14.85,0,0,0-2.494,1.2c-.061.037-.1.1-.159.141L134.7,95.36a10.265,10.265,0,0,0,5.767-10.921,177.161,177.161,0,0,1-2.231-27.963V46.327a31.965,31.965,0,0,0-63.93,0V56.482a177.506,177.506,0,0,1-2.231,27.963,10.159,10.159,0,0,0,5.528,10.786l-3.383,2.108c-.061-.043-.1-.11-.165-.153A14.961,14.961,0,0,0,71.593,96L57.026,90.53v-7.06a18.281,18.281,0,0,0,6.122-13.6V64.2a2.948,2.948,0,0,0,.7-1.3L66.7,49.655a10.472,10.472,0,0,0-8.58-12.208L40.658,34.536a10.3,10.3,0,0,0-11.705,7.74,9.07,9.07,0,0,0-6.061,10.688l2.764,10.093a2.984,2.984,0,0,0,.723,1.2V69.86a18.277,18.277,0,0,0,6.134,13.611v7.048L17.946,95.985A15.419,15.419,0,0,0,8,110.343v19.083a3.064,3.064,0,1,0,6.128,0V110.343a9.224,9.224,0,0,1,5.969-8.6l6.116-2.3a24.43,24.43,0,0,0,37.107,0l5.246,1.967a17.343,17.343,0,0,0-5.411,12.557v15.456a3.064,3.064,0,1,0,6.128,0V113.965a11.322,11.322,0,0,1,5.362-9.664l13.623-8.494a24.2,24.2,0,0,0,35.55,0l13.629,8.488a11.348,11.348,0,0,1,5.375,9.677v15.456a3.064,3.064,0,1,0,6.128,0V113.971a17.32,17.32,0,0,0-5.417-12.557l5.246-1.967a24.43,24.43,0,0,0,37.107,0l6.122,2.3a9.21,9.21,0,0,1,5.969,8.6v19.083a3.064,3.064,0,1,0,6.128,0V110.343A15.388,15.388,0,0,0,194.165,96ZM152,49.073a2.917,2.917,0,0,1,2.28-1.091,3.235,3.235,0,0,0,3.064-3.26,4.173,4.173,0,0,1,4.878-4.137L179.684,43.5a4.346,4.346,0,0,1,3.573,4.964l-1.483,6.882-.993-1.232a3.064,3.064,0,0,0-2.384-1.146H156.176a3.064,3.064,0,0,0-2.39,1.146l-1.244,1.55-1.14-4.143A2.941,2.941,0,0,1,152,49.073Zm3.076,13.237,2.574-3.211h19.286l2.654,3.291v7.489a12.214,12.214,0,0,1-8.365,11.57l-.129.043a12.149,12.149,0,0,1-7.568-.018l-.012-.006A12.165,12.165,0,0,1,160,79.616l-.055-.018a12.2,12.2,0,0,1-4.872-9.719V62.31Zm-66-2.647V55.8a12.647,12.647,0,0,1,7.182-11.282A46.771,46.771,0,0,0,120,51.1h.006l1.452.043a10.759,10.759,0,0,1,1.483.147v8.371a16.936,16.936,0,1,1-33.871,0Zm30.874,26.517V77.918a22.957,22.957,0,0,0,9.125-18.256V54.416a10.5,10.5,0,0,1,2.948,7.28,3.039,3.039,0,0,0,.355,1.367,181.27,181.27,0,0,0,2.047,22.344,4.149,4.149,0,0,1-4.112,4.817H126.46l-6.514-4.045ZM82.238,90.236a4.155,4.155,0,0,1-4.106-4.823,183.149,183.149,0,0,0,2.3-28.932V46.327a25.837,25.837,0,1,1,51.674,0v2.629a16.369,16.369,0,0,0-10.559-3.934l-1.452-.043a40.949,40.949,0,0,1-24.2-7.838,3.046,3.046,0,0,0-4.278.68,2.991,2.991,0,0,0-.46,2.513,18.851,18.851,0,0,0-8.12,14.236,3,3,0,0,0-.1.478v4.621A22.98,22.98,0,0,0,92.135,77.98v8.2l-6.514,4.057H82.238ZM29.431,49.073a2.917,2.917,0,0,1,2.28-1.091,3.235,3.235,0,0,0,3.064-3.26,4.173,4.173,0,0,1,4.878-4.137L57.118,43.5a4.346,4.346,0,0,1,3.573,4.964l-1.483,6.882-.993-1.232a3.064,3.064,0,0,0-2.384-1.146H33.61a3.064,3.064,0,0,0-2.39,1.146l-1.244,1.55-1.14-4.143a2.942,2.942,0,0,1,.594-2.445ZM32.507,62.31,35.081,59.1H54.367l2.654,3.291v7.489a12.21,12.21,0,0,1-4.884,9.732l-.018.006a12.061,12.061,0,0,1-3.475,1.832l-.11.037a12.172,12.172,0,0,1-7.519.006l-.11-.037a12.043,12.043,0,0,1-3.475-1.826l-.018-.006a12.2,12.2,0,0,1-4.9-9.744V62.31Zm12.263,39.54a18.378,18.378,0,0,1-12.293-4.756l4.179-1.569a3.064,3.064,0,0,0,1.986-2.868V87.191c.374.135.772.2,1.152.306.545.153,1.079.325,1.636.429a17.829,17.829,0,0,0,2.488.251c.282.012.552.086.84.086.264,0,.515-.067.778-.08a18.885,18.885,0,0,0,2.568-.257c.552-.1,1.079-.276,1.612-.429.392-.11.8-.172,1.183-.313v5.473a3.064,3.064,0,0,0,1.986,2.868l4.173,1.563a18.348,18.348,0,0,1-12.287,4.762Zm61.283-4.388a18.66,18.66,0,0,1-12.5-4.939l3.273-2.041a3,3,0,0,0,1.385-2.6h.055V81.3a21.658,21.658,0,0,0,15.547-.018v6.606h.061a3,3,0,0,0,1.391,2.6l3.285,2.047a18.716,18.716,0,0,1-12.5,4.927Zm61.283,4.388a18.378,18.378,0,0,1-12.293-4.756l4.18-1.569a3.064,3.064,0,0,0,1.986-2.868V87.184c.349.129.717.178,1.066.282.576.165,1.134.349,1.734.46a18.531,18.531,0,0,0,2.47.251c.288.012.558.086.852.086.264,0,.5-.067.766-.08a18.218,18.218,0,0,0,2.586-.264c.521-.1,1.017-.257,1.526-.4.417-.116.852-.184,1.262-.331v5.466a3.064,3.064,0,0,0,1.986,2.868l4.173,1.563a18.379,18.379,0,0,1-12.293,4.762Z" transform="translate(33.167 59.542)" fill="#df5550"/>
    </g>
  </g>
</svg>
