<svg xmlns="http://www.w3.org/2000/svg" xmlns:xlink="http://www.w3.org/1999/xlink" width="234" height="103" viewBox="0 0 234 103">
  <defs>
    <clipPath id="clip-path">
      <rect id="Rectangle_472" data-name="Rectangle 472" width="234" height="103" rx="14" transform="translate(29 411)" fill="#ec5a54" stroke="#707070" stroke-width="1"/>
    </clipPath>
  </defs>
  <g id="Mask_Group_14" data-name="Mask Group 14" transform="translate(-29 -411)" clip-path="url(#clip-path)">
    <g id="_7457984a009fe9fc0bc43b614199db34" data-name="7457984a009fe9fc0bc43b614199db34" transform="translate(81.5 405.001)">
      <path id="Path_487" data-name="Path 487" d="M115.9,48.049l-3.665,39.4h4.048l3.639-39.118c.006-.062.009-.124.009-.187,0-11.19-6.951-18.14-18.14-18.14H88.665a22.575,22.575,0,0,1-.515,4.031h13.639C110.725,34.031,115.862,39.139,115.9,48.049ZM12.7,87.445h4.051L13.117,50.238c-.011-.284-.016-2.112-.015-2.269.092-8.858,5.234-13.938,14.108-13.938H40.849A22.577,22.577,0,0,1,40.334,30H27.211C16.137,30,9.186,36.87,9.071,47.925c0,.021,0,2.319.027,2.617Zm110.254,4.031H6.047A6.053,6.053,0,0,0,0,97.523v8.062A2.016,2.016,0,0,0,2.016,107.6H13.1v19.148a2.016,2.016,0,0,0,4.031,0V107.6h94.734v19.148a2.016,2.016,0,0,0,4.031,0V107.6h11.086A2.016,2.016,0,0,0,129,105.585V97.523a6.053,6.053,0,0,0-6.047-6.047Zm2.016,12.094H4.031V97.523a2.018,2.018,0,0,1,2.016-2.016H122.952a2.018,2.018,0,0,1,2.016,2.016Z" transform="translate(0 0.234)" fill="#ec3652"/>
      <path id="Path_488" data-name="Path 488" d="M47.368,50.39H42.977C30.859,50.39,21,60.9,21,73.813V87.679h4.031V73.813c0-10.693,8.05-19.391,17.946-19.391h7.79l9.006,8.385-4.4,15.462a1.97,1.97,0,0,0-.048.212,4.216,4.216,0,0,0,1.32,3.8l4.466,4.142a4.837,4.837,0,0,0,6.453.062l4.393-3.911a4.213,4.213,0,0,0,1.4-3.823,2.021,2.021,0,0,0-.043-.2L69.049,62.666,77.9,54.421h7.79c9.895,0,17.946,8.7,17.946,19.391V87.679h4.031V73.813c0-12.915-9.859-23.423-21.977-23.423H81.3a8.709,8.709,0,0,1-2.065-8.064,18.684,18.684,0,0,0,5.253-12.95V19A19.239,19.239,0,0,0,65.061,0H63.61A19.24,19.24,0,0,0,44.18,19V29.376a18.687,18.687,0,0,0,5.28,12.979,8.686,8.686,0,0,1-2.092,8.035ZM69.277,79.562l-4.394,3.912a.836.836,0,0,1-1.03-.007l-4.465-4.141a.309.309,0,0,1-.088-.13l4.082-14.34a5.709,5.709,0,0,0,2.074-.027l3.916,14.6A.3.3,0,0,1,69.277,79.562Zm-3.73-19.144a1.765,1.765,0,0,1-2.424,0s-5.954-5.47-10.906-9.911a12.121,12.121,0,0,0,1.44-4.844,19.613,19.613,0,0,0,9.954,2.712h1.452a19.615,19.615,0,0,0,9.955-2.713,12.121,12.121,0,0,0,1.438,4.845C74.8,51.951,65.547,60.418,65.547,60.418ZM48.211,19A15.2,15.2,0,0,1,63.61,4.031h1.452A15.2,15.2,0,0,1,80.46,19V29.376a15.2,15.2,0,0,1-15.4,14.967H63.61a15.2,15.2,0,0,1-15.4-14.967Z" transform="translate(0.164 0)" fill="#ec3652"/>
    </g>
  </g>
</svg>
