<svg id="_674696cb1958d9d184ff614339cac9fc" data-name="674696cb1958d9d184ff614339cac9fc" xmlns="http://www.w3.org/2000/svg" width="35.371" height="35.371" viewBox="0 0 35.371 35.371">
  <path id="Path_62" data-name="Path 62" d="M25.082,2.954H13.291a1.473,1.473,0,0,0-1.473,1.473v6.264l13.264,7.737,6.632,2.8,6.632-2.8V10.691Z" transform="translate(-2.975 -0.744)" fill="#21a366"/>
  <path id="Path_63" data-name="Path 63" d="M11.818,13.3H25.082v7.737H11.818Z" transform="translate(-2.975 -3.347)" fill="#107c41"/>
  <path id="Path_64" data-name="Path 64" d="M41.334,2.954H29.544v7.737H42.808V4.427A1.473,1.473,0,0,0,41.334,2.954Z" transform="translate(-7.437 -0.744)" fill="#33c481"/>
  <path id="Path_65" data-name="Path 65" d="M25.082,23.635H11.818v14a1.473,1.473,0,0,0,1.473,1.473H36.873a1.473,1.473,0,0,0,1.473-1.473V31.372Z" transform="translate(-2.975 -5.95)" fill="#185c37"/>
  <path id="Path_66" data-name="Path 66" d="M29.544,23.635H42.808v7.737H29.544Z" transform="translate(-7.437 -5.95)" fill="#107c41"/>
  <path id="Path_67" data-name="Path 67" d="M21.4,10.34H11.818v21H21.4a1.478,1.478,0,0,0,1.476-1.472V11.813A1.478,1.478,0,0,0,21.4,10.34Z" transform="translate(-2.975 -2.603)" opacity="0.1"/>
  <path id="Path_68" data-name="Path 68" d="M20.293,11.818H11.818v21h8.475a1.478,1.478,0,0,0,1.473-1.472V13.291A1.478,1.478,0,0,0,20.293,11.818Z" transform="translate(-2.975 -2.975)" opacity="0.2"/>
  <path id="Path_69" data-name="Path 69" d="M20.293,11.818H11.818v18.79h8.475a1.478,1.478,0,0,0,1.473-1.473V13.291A1.478,1.478,0,0,0,20.293,11.818Z" transform="translate(-2.975 -2.975)" opacity="0.2"/>
  <path id="Path_70" data-name="Path 70" d="M19.188,11.818h-7.37v18.79h7.37a1.478,1.478,0,0,0,1.473-1.473V13.291A1.478,1.478,0,0,0,19.188,11.818Z" transform="translate(-2.975 -2.975)" opacity="0.2"/>
  <path id="Back_Plate" data-name="Back Plate" d="M1.473,11.818H16.214a1.473,1.473,0,0,1,1.473,1.473V28.032a1.473,1.473,0,0,1-1.473,1.473H1.473A1.473,1.473,0,0,1,0,28.03V13.291a1.473,1.473,0,0,1,1.473-1.473Z" transform="translate(0 -2.975)" fill="#107c41"/>
  <path id="Path_71" data-name="Path 71" d="M5.219,27.3,8.8,21.76,5.52,16.249H8.156l1.788,3.523q.246.5.34.748h.023q.177-.4.37-.778l1.911-3.493h2.42l-3.36,5.48L15.09,27.3H12.518l-2.066-3.87a3.23,3.23,0,0,1-.246-.517h-.031a2.439,2.439,0,0,1-.239.5L7.813,27.3Z" transform="translate(-1.314 -4.09)" fill="#fff"/>
  <path id="Path_72" data-name="Path 72" d="M0,0H35.371V35.371H0Z" transform="translate(0)" fill="none"/>
</svg>
