<svg xmlns="http://www.w3.org/2000/svg" width="59.937" height="51.508" viewBox="0 0 59.937 51.508">
  <g id="_9dd25228078fec7e0250f077cb11a158" data-name="9dd25228078fec7e0250f077cb11a158" transform="translate(0 -5)">
    <path id="Path_262" data-name="Path 262" d="M30.9,17.175H20.6a1.873,1.873,0,1,1,0-3.746H30.9a1.873,1.873,0,1,1,0,3.746ZM54.318,5H5.619A5.626,5.626,0,0,0,0,10.619v20.6a1.873,1.873,0,1,0,3.746,0v-20.6A1.876,1.876,0,0,1,5.619,8.746h48.7a1.876,1.876,0,0,1,1.873,1.873V33.1H29.032a1.873,1.873,0,1,0,0,3.746H56.191v3.746a1.876,1.876,0,0,1-1.873,1.873H29.032a1.873,1.873,0,1,0,0,3.746H54.318a5.626,5.626,0,0,0,5.619-5.619V10.619A5.626,5.626,0,0,0,54.318,5Zm-38.4,10.3a1.873,1.873,0,0,0-1.873-1.873H9.365a1.873,1.873,0,1,0,0,3.746h4.683A1.873,1.873,0,0,0,15.921,15.3Zm16.857,5.619A1.873,1.873,0,0,0,30.9,19.048H27.159a1.873,1.873,0,0,0,0,3.746H30.9A1.873,1.873,0,0,0,32.778,20.921Zm-10.3,0A1.873,1.873,0,0,0,20.6,19.048h-2.81a1.873,1.873,0,1,0,0,3.746H20.6A1.873,1.873,0,0,0,22.476,20.921Z" transform="translate(0)" fill="#414042"/>
    <path id="Path_263" data-name="Path 263" d="M46.825,18.556A1.879,1.879,0,0,0,48.7,20.429h4.683v.937a3.745,3.745,0,0,1-3.746,3.746H40.27a3.745,3.745,0,0,1-3.746-3.746v-.937h4.683a1.873,1.873,0,1,0,0-3.746H36.524v-.937A3.745,3.745,0,0,1,40.27,12h9.365a3.745,3.745,0,0,1,3.746,3.746v.937H48.7A1.879,1.879,0,0,0,46.825,18.556ZM0,39.159a1.873,1.873,0,0,1,.976-1.645l10.3-5.619a1.87,1.87,0,0,1,1.794,0l10.3,5.619a1.873,1.873,0,0,1,.976,1.645c0,9.441-5.983,14.321-11.2,17.517a1.873,1.873,0,0,1-1.957,0C5.983,53.48,0,48.6,0,39.159Zm11.238,9.365a1.866,1.866,0,0,0,1.324-.549l4.683-4.683A1.873,1.873,0,1,0,14.6,40.644L11.238,44,9.753,42.517A1.873,1.873,0,1,0,7.1,45.166l2.81,2.809a1.866,1.866,0,0,0,1.324.549Z" transform="translate(0 -0.444)" fill="#d00000"/>
  </g>
</svg>
