<svg xmlns="http://www.w3.org/2000/svg" xmlns:xlink="http://www.w3.org/1999/xlink" width="128.78" height="114.436" viewBox="0 0 128.78 114.436"><defs><linearGradient id="a" x1="-1.566" y1="2.535" x2="1.392" y2="-0.378" gradientUnits="objectBoundingBox"><stop offset="0" stop-color="#6ac105"/><stop offset="1" stop-color="#5aa207"/></linearGradient></defs><g transform="translate(-237 -232)"><g transform="translate(237 232)"><path d="M103.139,38.795,87.565,27.115V11.746A2.049,2.049,0,0,0,85.516,9.7H64.34L53.959,1.91a2.049,2.049,0,0,0-2.459,0L41.119,9.7H19.942a2.049,2.049,0,0,0-2.049,2.049V27.115L2.32,38.795a2.049,2.049,0,0,0-.82,1.639v61.475a2.049,2.049,0,0,0,2.049,2.049h98.36a2.049,2.049,0,0,0,2.049-2.049V40.434a2.049,2.049,0,0,0-.82-1.639ZM39.864,70.233,5.6,97.643V44.532Zm3.389,2.541L51.5,78.958a2.049,2.049,0,0,0,2.459,0L62.2,72.774,96.065,99.86H9.393Zm22.34-2.541,34.266-25.7v53.11Zm32.9-29.8-10.93,8.2V32.237ZM52.729,6.111,57.512,9.7H47.946Zm30.737,7.684V51.7L62.291,67.59l-.082-.07-.258.324-9.221,6.914-9.221-6.914-.254-.324-.086.07L21.992,51.7V13.795ZM17.893,48.631l-10.93-8.2,10.93-8.2Z" transform="translate(-1.5 -1.5)" fill="#3b434f"/><path d="M17.07,21.589a2.049,2.049,0,0,0,2.9,0l9.365-9.369a2.049,2.049,0,1,0-2.9-2.9l-7.914,7.914L15.283,14a2.049,2.049,0,1,0-2.9,2.9Z" transform="translate(30.368 20.878)" fill="#5da906"/><path d="M27.942,42.75A18.442,18.442,0,1,0,9.5,24.307,18.442,18.442,0,0,0,27.942,42.75Zm0-32.787A14.344,14.344,0,1,1,13.6,24.307,14.344,14.344,0,0,1,27.942,9.963Z" transform="translate(23.287 12.024)" fill="url(#a)"/></g><g transform="translate(314.37 284.629)"><circle cx="11.758" cy="11.758" r="11.758" transform="translate(12.211)" fill="#fff"/><path d="M7779.467,3731.283v6.088l-2.552,8.473H7771l-2.31,5.85-4.941,2.435-2.657,2.49v9.076l2.657,1.841v2.184h42.228l2.725-2.184,1.73-1.841v-9.076l-4.455-4.925h-4.192v-2.763l-3.723-3.086h-5.892v-10.729l3.3-5.651,2.595-6.507-18.6-1.639Z" transform="translate(-7761.095 -3710.884)" fill="#fff"/></g><g transform="translate(312.024 283.229)"><path d="M52.294,44.949V43.862A4.072,4.072,0,0,0,48.229,39.8h-4.6l-1.4-8.107c-.246-1.4.75-3.169,1.792-4.132A13.553,13.553,0,0,0,34.848,4.01h0a13.561,13.561,0,0,0-9.171,23.56A5.221,5.221,0,0,1,27.469,31.7l-1.4,8.107h-4.6A4.072,4.072,0,0,0,17.4,43.874V44.96A9.825,9.825,0,0,0,8.22,54.724v3.7a4,4,0,0,0,2.945,3.83v.4a4.072,4.072,0,0,0,4.065,4.065H54.466a4.072,4.072,0,0,0,4.065-4.065v-.4a4.021,4.021,0,0,0,2.945-3.83v-3.7a9.817,9.817,0,0,0-9.182-9.764ZM27.189,25.9A11.318,11.318,0,0,1,34.848,6.238h0A11.318,11.318,0,0,1,42.507,25.9c-1.523,1.4-2.889,3.852-2.486,6.17L41.354,39.8H28.331l1.333-7.726c.4-2.318-.963-4.77-2.486-6.17ZM21.467,42.037H48.24a1.826,1.826,0,0,1,1.825,1.825v1.019H19.642V43.862A1.826,1.826,0,0,1,21.467,42.037ZM54.477,64.466H15.23A1.826,1.826,0,0,1,13.4,62.641v-.179H56.291v.179a1.826,1.826,0,0,1-1.825,1.825Zm4.759-6.058a1.826,1.826,0,0,1-1.825,1.825H12.285a1.826,1.826,0,0,1-1.825-1.825v-3.7a7.6,7.6,0,0,1,7.592-7.592H51.633a7.6,7.6,0,0,1,7.592,7.592v3.7Z" transform="translate(-8.22 -4.01)" fill="#3b434f" stroke="#3b434f" stroke-width="1"/><path d="M31.311,10.567a1.12,1.12,0,0,0-.5-2.184,9.026,9.026,0,0,0-4.513,2.855,1.13,1.13,0,0,0,.134,1.579,1.125,1.125,0,0,0,1.579-.146A6.914,6.914,0,0,1,31.3,10.556ZM25.432,15.83a1.1,1.1,0,0,0-1.142,1.1,14.258,14.258,0,0,0,.056,1.523,1.116,1.116,0,0,0,1.109,1.008h.112a1.119,1.119,0,0,0,1.008-1.221,9.661,9.661,0,0,1-.045-1.254,1.116,1.116,0,0,0-1.1-1.142Z" transform="translate(-6.295 -3.49)" fill="#3b434f" stroke="#3b434f" stroke-width="1"/></g></g></svg>