<svg xmlns="http://www.w3.org/2000/svg" width="57.5" height="57.5" viewBox="0 0 57.5 57.5">
  <g id="Group_509" data-name="Group 509" transform="translate(6.645 -797.278)">
    <g id="Group_736" data-name="Group 736" transform="translate(-8.895 798.042)">
      <path id="Path_269" data-name="Path 269" d="M16.7,13.751A5.694,5.694,0,1,1,8.971,6.027a.223.223,0,0,1,.264.038.22.22,0,0,1,.038.266,5.245,5.245,0,0,0,7.119,7.119.22.22,0,0,1,.266.038A.223.223,0,0,1,16.7,13.751Z" transform="translate(32 -4.317) rotate(45)" fill="#d00000"/>
      <g id="Group_741" data-name="Group 741" transform="translate(0.25 -2.764)">
        <path id="Path_279" data-name="Path 279" d="M57.446,47.179v-30.8a2.054,2.054,0,0,0-2.054-2.054H43.071V4.054A2.054,2.054,0,0,0,41.018,2H20.482a2.054,2.054,0,0,0-2.054,2.054V14.321H6.107a2.054,2.054,0,0,0-2.054,2.054v30.8A2.054,2.054,0,0,0,2,49.232v8.214A2.054,2.054,0,0,0,4.054,59.5H57.446A2.054,2.054,0,0,0,59.5,57.446V49.232A2.054,2.054,0,0,0,57.446,47.179Zm-4.107-28.75v28.75H43.071V18.429ZM22.536,6.107H38.964V47.179H36.911V30.75A2.054,2.054,0,0,0,34.857,28.7H26.643a2.054,2.054,0,0,0-2.054,2.054V47.179H22.536ZM32.8,47.179H28.7V32.8H32.8ZM8.161,18.429H18.429v28.75H8.161ZM41.018,55.393H6.107V51.286H55.393v4.107Z" fill="#414042"/>
        <path id="Path_280" data-name="Path 280" d="M8.054,23.482h2.054a2.054,2.054,0,0,0,0-4.107H8.054a2.054,2.054,0,0,0,0,4.107Zm2.054,4.107H8.054a2.054,2.054,0,0,0,0,4.107h2.054a2.054,2.054,0,0,0,0-4.107Zm0,8.214H8.054a2.054,2.054,0,0,0,0,4.107h2.054a2.054,2.054,0,0,0,0-4.107ZM42.964,23.482h2.054a2.054,2.054,0,1,0,0-4.107H42.964a2.054,2.054,0,0,0,0,4.107Zm0,8.214h2.054a2.054,2.054,0,1,0,0-4.107H42.964a2.054,2.054,0,0,0,0,4.107ZM45.018,35.8H42.964a2.054,2.054,0,0,0,0,4.107h2.054a2.054,2.054,0,1,0,0-4.107Z" transform="translate(4.214 3.161)" fill="#414042"/>
      </g>
    </g>
  </g>
</svg>
