<svg xmlns="http://www.w3.org/2000/svg" width="46" height="46" viewBox="0 0 46 46">
  <g id="b25c070598ae0570b437492b3642f0c2" transform="translate(-1 -1)">
    <path id="Path_388" data-name="Path 388" d="M25.87,23.57a4,4,0,0,0-3.87,4V46H2V24.58a4,4,0,0,1,3.56-4l4.54-.5,1.07,1.07a4,4,0,0,0,5.66,0L17.9,20.1l4.54.5A4,4,0,0,1,25.87,23.57Z" fill="#ec5a54"/>
    <path id="Path_393" data-name="Path 393" d="M20,10c-1.65,0-2.85.15-4.22-.87-3,1-4.75.87-7.78.87A1,1,0,0,1,7,9V6.39A5.4,5.4,0,0,1,12.39,1h2.76a4,4,0,0,1,3.57,2.21l.07.07A4,4,0,0,1,21,6.85V9A1,1,0,0,1,20,10ZM16,7a1,1,0,0,1,.71.29,2.43,2.43,0,0,0,1.7.71H19V6.85a2,2,0,0,0-1.11-1.78c-.64-.33-.61-.28-1-1A2,2,0,0,0,15.15,3H12.39A3.39,3.39,0,0,0,9,6.39V8a16.55,16.55,0,0,0,6-.72C15.77,7,15.8,7,16,7Z" fill="#fff"/>
    <path id="Path_394" data-name="Path 394" d="M14,19a6,6,0,0,1-6-6V9a1,1,0,0,1,2,0v4a4,4,0,0,0,8,0V9a1,1,0,0,1,2,0v4a6,6,0,0,1-6,6Z" fill="#fff"/>
    <path id="Path_395" data-name="Path 395" d="M2,47a1,1,0,0,1-1-1V24.58a5,5,0,0,1,4.45-5L10,19.1V17a1,1,0,0,1,2,0v3a1,1,0,0,1-.89,1l-5.44.6A3,3,0,0,0,3,24.6V46a1,1,0,0,1-1,1Zm24,0a1,1,0,0,1-1-1V30a1,1,0,0,1,2,0V46A1,1,0,0,1,26,47Zm-.13-22.43a1,1,0,0,1-1-.75,3,3,0,0,0-2.57-2.23L16.89,21A1,1,0,0,1,16,20V17a1,1,0,0,1,2,0v2.11l4.54.5a5,5,0,0,1,4.29,3.71,1,1,0,0,1-.96,1.25Z" fill="#fff"/>
    <path id="Path_396" data-name="Path 396" d="M14,23.34c-2.35,0-3.44-1.37-4.61-2.53a1,1,0,0,1,1.42-1.42l1.07,1.07a3,3,0,0,0,4.24,0l1.07-1.07a1,1,0,1,1,1.42,1.42c-1.26,1.25-2.29,2.53-4.61,2.53ZM6,47a1,1,0,0,1-1-1V42.54a4,4,0,0,1,3.35-3.95L11,38.16v-1.7a1,1,0,0,1,2,0V39a1,1,0,0,1-.83,1l-3.5.58a2,2,0,0,0-1.67,2V46A1,1,0,0,1,6,47Zm16,0a1,1,0,0,1-1-1V42.54a2,2,0,0,0-1.67-2L15.83,40A1,1,0,0,1,15,39V36.46a1,1,0,0,1,2,0v1.7l2.65.43A4,4,0,0,1,23,42.54V46A1,1,0,0,1,22,47Z" fill="#fff"/>
    <path id="Path_397" data-name="Path 397" d="M14,38a5,5,0,0,1-5-5V31a5,5,0,0,1,10,0v2A5,5,0,0,1,14,38Zm0-10a3,3,0,0,0-3,3v2a3,3,0,1,0,6,0V31a3,3,0,0,0-3-3ZM6,43a1,1,0,0,1-1-1V27a1,1,0,0,1,2,0V42A1,1,0,0,1,6,43Z" fill="#fff"/>
    <path id="Path_398" data-name="Path 398" d="M6,33H2a1,1,0,0,1,0-2H6a1,1,0,0,1,0,2Zm4,14a1,1,0,0,1-1-1V44a1,1,0,0,1,2,0v2A1,1,0,0,1,10,47Zm8,0a1,1,0,0,1-1-1V44a1,1,0,0,1,2,0v2A1,1,0,0,1,18,47ZM42,24.55a1,1,0,0,1-1-1V12a7,7,0,0,0-14,0V23.55a1,1,0,0,1-2,0V12a9,9,0,1,1,18,0V23.55A1,1,0,0,1,42,24.55Z" fill="#fff"/>
    <path id="Path_399" data-name="Path 399" d="M34,22a5.47,5.47,0,0,1-5.44-4.87l-.55-5A1,1,0,0,1,29,11h2.17a5.79,5.79,0,0,0,4.12-1.71,1,1,0,0,1,1.6.26l.11.21A2.22,2.22,0,0,0,39,11a1,1,0,0,1,1,1.11l-.55,5A5.47,5.47,0,0,1,34,22Zm-3.88-9,.43,3.91a3.47,3.47,0,0,0,6.9,0l.45-4.05a4.2,4.2,0,0,1-2.13-1.35A8.44,8.44,0,0,1,30.12,13Z" fill="#fff"/>
    <path id="Path_400" data-name="Path 400" d="M22,47a1,1,0,0,1-1-1V27.58a5,5,0,0,1,4.45-5L30,22.1V19.84a1,1,0,0,1,2,0V23a1,1,0,0,1-.89,1l-5.44.6a3,3,0,0,0-2.67,3V46A1,1,0,0,1,22,47ZM46,32a1,1,0,0,1-1-1V27.58a3,3,0,0,0-2.67-3L36.89,24A1,1,0,0,1,36,23V19.84a1,1,0,0,1,2,0v2.27l4.54.5a5,5,0,0,1,4.45,5V31A1,1,0,0,1,46,32Z" fill="#fff"/>
    <path id="Path_401" data-name="Path 401" d="M34,26.34c-2.35,0-3.44-1.37-4.61-2.53a1,1,0,0,1,1.42-1.42l1.07,1.07a3,3,0,0,0,4.24,0l1.07-1.07a1,1,0,0,1,1.42,1.42c-1.26,1.25-2.29,2.53-4.61,2.53ZM42,36a1,1,0,0,1-1-1V30a1,1,0,0,1,2,0v5A1,1,0,0,1,42,36ZM26,36H22a1,1,0,0,1,0-2h4a1,1,0,0,1,0,2Z" fill="#fff"/>
    <path id="Path_402" data-name="Path 402" d="M47,35v4.92A7.18,7.18,0,0,1,41,47a7.18,7.18,0,0,1-6-7.08V35a3.25,3.25,0,0,0,3-2h6l.11.21A3.22,3.22,0,0,0,47,35Z" fill="#fff"/>
    <path id="Path_403" data-name="Path 403" d="M40,43c-.54,0-.57-.15-2.71-2.29a1,1,0,0,1,1.42-1.42L40,40.59l3.29-3.3a1,1,0,1,1,1.42,1.42l-4,4A1,1,0,0,1,40,43Z" fill="#ec5a54"/>
    <path id="Path_404" data-name="Path 404" d="M10.88,40.49l-.57-.7a1,1,0,0,1,1.56-1.26l.57.71a2,2,0,0,0,3.12,0l.57-.72a1,1,0,1,1,1.56,1.26l-.57.71a4,4,0,0,1-6.24,0Z" fill="#fff"/>
  </g>
</svg>
