<svg xmlns="http://www.w3.org/2000/svg" width="50.107" height="57.825" viewBox="0 0 50.107 57.825">
  <g id="Outline" transform="translate(0)">
    <path id="Path_632" data-name="Path 632" d="M13.14,45.486A16,16,0,0,0,6,58.851a.964.964,0,0,0,.964.964H55.143a.964.964,0,0,0,.964-.964,16,16,0,0,0-7.14-13.365,55.889,55.889,0,0,0-9.935-5.049,13.3,13.3,0,0,1-2.024-3.527,9.732,9.732,0,0,0,5.608-8.027,4.818,4.818,0,0,0,3.854-4.722v-10.6C46.471,7.2,39.552,2,31.053,2c-7.6-.27-15.678,5.136-15.417,11.563v10.6a4.818,4.818,0,0,0,3.855,4.722,9.732,9.732,0,0,0,5.588,8.027,13.3,13.3,0,0,1-2.024,3.527,55.888,55.888,0,0,0-9.915,5.049Zm29.977.838H40.044a.964.964,0,0,0-.964,1.233l.964,3.218L33.3,55.884,39.013,42.47c1.089.453,2.139.964,3.141,1.388Zm-20.284.385a.964.964,0,0,0-.771-.385H18.989l.964-2.428c.964-.472,2.052-.964,3.141-1.388L28.75,55.884l-6.745-5.107.964-3.218A.964.964,0,0,0,22.834,46.71Zm5.589-.684.742.964L28.3,49.832l-1.176-2.766Zm6.562,1.06-1.176,2.766-.829-2.843.742-.964Zm-4.9-2.12L31.053,44l.964.964-.964.964Zm.713,3.286h.5l1.339,4.355-1.59,3.768-1.59-3.768Zm4.962-3.016-3.083-2.515L36.536,40.2a10.764,10.764,0,0,0,.829,1.31Zm-9.424,0-1.6-3.729a10.764,10.764,0,0,0,.877-1.262l3.806,2.525Zm-10.705,8.8a.964.964,0,1,1-.964-.964A.964.964,0,0,1,15.636,54.034Zm-1.927-6.562v3.854a2.891,2.891,0,1,0,1.927,0V46.2c.549-.328,1.118-.655,1.715-.964l-.684,1.715a.942.942,0,0,0,.9,1.3h3.209l-.761,2.621a.964.964,0,0,0,.337,1.041l7.815,5.974H7.927a14.02,14.02,0,0,1,5.782-10.416ZM54.179,57.888H33.944L41.8,51.914a.964.964,0,0,0,.337-1.041l-.8-2.621h3.209a.963.963,0,0,0,.9-1.32l-.684-1.715c.6.328,1.166.655,1.715.964v4.115a3.854,3.854,0,0,0-2.891,3.739v1.927a.964.964,0,0,0,.964.964h.964a.964.964,0,0,0,0-1.927v-.964a1.927,1.927,0,1,1,3.854,0V55a.964.964,0,0,0,0,1.927h.964a.964.964,0,0,0,.964-.964V54.034A3.854,3.854,0,0,0,48.4,50.314V47.423A14.02,14.02,0,0,1,54.179,57.888ZM42.616,26.88V24.866c.6.1,1.185.164,1.763.212a2.891,2.891,0,0,1-1.763,1.8ZM17.563,13.563c-.2-5.386,6.938-9.867,13.49-9.636,7.439,0,13.49,4.336,13.49,9.636V23.2C37.3,22.688,27.816,16.7,27.719,16.646a.964.964,0,0,0-1.041,0l-9.116,5.782Zm.048,11.062,1.879-1.156V26.88a2.891,2.891,0,0,1-1.879-2.216Zm3.806,3.854V22.235L27.2,18.554a54.125,54.125,0,0,0,13.49,5.907V28.5c0,4.355-4.327,7.9-9.636,7.9s-9.636-3.565-9.636-7.9Zm9.636,9.848a13.1,13.1,0,0,0,4.172-.675l.366.819-4.539,3.035L26.515,38.5l.366-.819A13.1,13.1,0,0,0,31.053,38.327Z" transform="translate(-6 -1.99)" fill="#3b434f"/>
    <path id="Path_633" data-name="Path 633" d="M38.975,37.987A.964.964,0,0,0,37.549,36.7a1.5,1.5,0,0,1-2.419,0,.964.964,0,1,0-1.445,1.272,3.421,3.421,0,0,0,5.29.019Z" transform="translate(-11.281 -7.942)" fill="#3b434f"/>
  </g>
</svg>
