<svg xmlns="http://www.w3.org/2000/svg" width="25.137" height="25.137" viewBox="0 0 25.137 25.137">
  <g id="Group_896" data-name="Group 896" transform="translate(-6078 -1162)">
    <circle id="Ellipse_25" data-name="Ellipse 25" cx="11.468" cy="11.468" r="11.468" transform="translate(6079.161 1163.161)" fill="#fff"/>
    <g id="Layer_2" data-name="Layer 2" transform="translate(6078 1162)">
      <path id="checkmark-circle-2" d="M14.568,2A12.568,12.568,0,1,0,27.137,14.568,12.568,12.568,0,0,0,14.568,2Zm5.4,9.565-5.744,7.541a1.261,1.261,0,0,1-1.986.013L9.177,15.209a1.258,1.258,0,1,1,1.986-1.546l2.049,2.614,4.751-6.284a1.264,1.264,0,1,1,2.011,1.533Z" transform="translate(-2 -2)" fill="#91c654"/>
    </g>
  </g>
</svg>
