<svg xmlns="http://www.w3.org/2000/svg" width="54.777" height="54.777" viewBox="0 0 54.777 54.777">
  <g id="Group_737" data-name="Group 737" transform="translate(-3 -3)">
    <path id="Path_270" data-name="Path 270" d="M22.641,35.282A12.641,12.641,0,1,1,35.282,22.641a12.464,12.464,0,0,1-1.719,6.348,2.107,2.107,0,1,1-3.641-2.119,8.316,8.316,0,0,0,1.146-4.228,8.427,8.427,0,1,0-8.427,8.427,7.8,7.8,0,0,0,1.97-.247A2.107,2.107,0,0,1,25.685,34.9,12,12,0,0,1,22.641,35.282Z" transform="translate(7.748 7.748)" fill="#d00000"/>
    <path id="Path_271" data-name="Path 271" d="M32.874,57.777H27.9a4.213,4.213,0,0,1-4.131-3.387L22.9,50.028a6.805,6.805,0,0,1-1.165-.436L18.1,52.04a4.214,4.214,0,0,1-5.315-.527L9.264,48a4.23,4.23,0,0,1-.527-5.318l2.48-3.721a5.225,5.225,0,0,1-.525-1.083l-4.308-.87A4.214,4.214,0,0,1,3,32.874V27.9a4.213,4.213,0,0,1,3.387-4.131l4.361-.872a6.833,6.833,0,0,1,.432-1.159L8.737,18.1a4.228,4.228,0,0,1,.527-5.315L12.78,9.264A4.226,4.226,0,0,1,18.1,8.737l3.721,2.48A5.3,5.3,0,0,1,22.9,10.69l.868-4.306A4.214,4.214,0,0,1,27.9,3h4.972a4.213,4.213,0,0,1,4.131,3.387l.872,4.361a6.805,6.805,0,0,1,1.165.436l3.636-2.448a4.214,4.214,0,0,1,5.315.527l3.518,3.516A4.23,4.23,0,0,1,52.04,18.1l-2.48,3.721a5.3,5.3,0,0,1,.527,1.085l4.306.868A4.214,4.214,0,0,1,57.777,27.9v4.972a4.213,4.213,0,0,1-3.387,4.131l-4.361.872a6.805,6.805,0,0,1-.436,1.165l2.448,3.636a4.228,4.228,0,0,1-.527,5.315L48,51.513a4.23,4.23,0,0,1-5.318.527l-3.721-2.48a5.3,5.3,0,0,1-1.085.527l-.868,4.306A4.214,4.214,0,0,1,32.874,57.777Zm-11.147-12.4a4.23,4.23,0,0,1,1.753.383c.31.141.619.272.935.392A4.146,4.146,0,0,1,27.03,49.2l.872,4.361h4.972l.872-4.361a4.146,4.146,0,0,1,2.615-3.053q.474-.181.931-.39a4.1,4.1,0,0,1,4,.293l3.723,2.482,3.516-3.516L46.052,41.3a4.106,4.106,0,0,1-.295-4c.141-.308.272-.617.392-.933A4.146,4.146,0,0,1,49.2,33.744l4.361-.87V27.9L49.2,27.03a4.146,4.146,0,0,1-3.053-2.615q-.181-.474-.39-.931a4.1,4.1,0,0,1,.293-4l2.482-3.723-3.516-3.516L41.3,14.724a4.1,4.1,0,0,1-4,.295c-.31-.141-.619-.272-.935-.392a4.146,4.146,0,0,1-2.61-3.053l-.872-4.361H27.9l-.872,4.361a4.146,4.146,0,0,1-2.615,3.053q-.474.181-.931.39a4.1,4.1,0,0,1-4-.293l-3.723-2.482-3.516,3.516,2.482,3.721a4.11,4.11,0,0,1,.293,4q-.211.459-.392.935a4.144,4.144,0,0,1-3.051,2.612L7.214,27.9v4.972l4.361.872a4.148,4.148,0,0,1,3.053,2.617q.181.472.392.933a4.108,4.108,0,0,1-.295,4l-2.482,3.718,3.516,3.516,3.723-2.482A4.032,4.032,0,0,1,21.727,45.374Z" transform="translate(0 0)" fill="#414042"/>
  </g>
</svg>
