<svg xmlns="http://www.w3.org/2000/svg" width="23.699" height="23.699" viewBox="0 0 23.699 23.699">
  <g id="_8fc02cfb0c252e439ae0caf0e61d1228" data-name="8fc02cfb0c252e439ae0caf0e61d1228" transform="translate(-0.5 -0.5)">
    <path id="Path_515" data-name="Path 515" d="M12.37,10.025l-1.424,4.749a1.147,1.147,0,0,0,1.1,1.476,1.133,1.133,0,0,0,.329-.049l4.749-1.424a1.144,1.144,0,0,0,.482-.287l8.707-8.707a1.146,1.146,0,0,0,0-1.622L22.986.836a1.146,1.146,0,0,0-1.622,0L12.658,9.543A1.148,1.148,0,0,0,12.37,10.025Zm2.114.935,7.692-7.692,1.7,1.7-7.692,7.692-2.433.729Z" transform="translate(-2.449 0)" fill="#fff"/>
    <path id="Path_516" data-name="Path 516" d="M23.052,11.2a1.147,1.147,0,0,0-1.147,1.147v7.645a1.913,1.913,0,0,1-1.911,1.911H4.7a1.913,1.913,0,0,1-1.911-1.911V4.7A1.913,1.913,0,0,1,4.7,2.793H12.35A1.147,1.147,0,0,0,12.35.5H4.7A4.21,4.21,0,0,0,.5,4.7v15.29a4.21,4.21,0,0,0,4.2,4.2h15.29a4.21,4.21,0,0,0,4.2-4.2V12.35A1.147,1.147,0,0,0,23.052,11.2Z" transform="translate(0 0)" fill="#fff"/>
  </g>
</svg>
