<svg xmlns="http://www.w3.org/2000/svg" width="70" height="70" viewBox="0 0 70 70">
  <g id="Group_1166" data-name="Group 1166" transform="translate(-426 -677)">
    <g id="Group_1150" data-name="Group 1150" transform="translate(365 79)">
      <g id="Group_1148" data-name="Group 1148" transform="translate(-163 18.828)">
        <circle id="Ellipse_69" data-name="Ellipse 69" cx="35" cy="35" r="35" transform="translate(224 579.172)" fill="#ec5a54"/>
      </g>
    </g>
    <path id="fa5a1d1b0fb07ff4f9bb0c3b1cdc5798" d="M19.1,15.737a1.651,1.651,0,0,0-2.267,0L13.64,18.931A1.6,1.6,0,0,0,15.908,21.2l.463-.479v4.136a1.6,1.6,0,1,0,3.194,0V20.719l.463.479a1.6,1.6,0,1,0,2.267-2.267ZM29.145,7.29H19.117l-.511-1.6A4.79,4.79,0,0,0,14.072,2.5H6.79A4.79,4.79,0,0,0,2,7.29V28.048a4.79,4.79,0,0,0,4.79,4.79H29.145a4.79,4.79,0,0,0,4.79-4.79V12.081A4.79,4.79,0,0,0,29.145,7.29Zm1.6,20.758a1.6,1.6,0,0,1-1.6,1.6H6.79a1.6,1.6,0,0,1-1.6-1.6V7.29a1.6,1.6,0,0,1,1.6-1.6h7.281a1.6,1.6,0,0,1,1.517,1.086L16.451,9.4a1.6,1.6,0,0,0,1.517,1.086H29.145a1.6,1.6,0,0,1,1.6,1.6Z" transform="translate(443.032 694.161)" fill="#fff"/>
  </g>
</svg>
