<svg xmlns="http://www.w3.org/2000/svg" width="239.104" height="163.646" viewBox="0 0 239.104 163.646">
  <g id="Group_1121" data-name="Group 1121" transform="translate(-148.948 -178.943)">
    <g id="_116a4241fd5e07700e497cdf87607544" data-name="116a4241fd5e07700e497cdf87607544" transform="translate(228.93 197.765)">
      <path id="body-bg-flat" d="M110.76,426.592s-3.537-31.007,26.931-34.466h13.038V386.12s9.171,3.939,18.458.439l.293,5.567h15.235s26.531,2.649,24.926,34.466Z" transform="translate(-109.808 -286.361)" fill="#fff"/>
      <path id="Rounded_Rectangle_13_copy" data-name="Rounded Rectangle 13 copy" d="M207.806,436.943H108.228l.473-8.079c.923-15.774,13.351-27.811,27.573-27.811H147.1v1.611h-9.96c-13.707,0-25.685,11.587-26.575,26.77l-.328,5.6h97.314l-.182-5.6c-.89-15.183-12.868-26.77-26.575-26.77H167.459v-1.611h14.109c14.222,0,26.65,12.038,27.573,27.811l.473,8.079Z" transform="translate(-108.228 -296.167)" fill="#3b434f"/>
      <path id="neck_copy_5" data-name="neck copy 5" d="M228.6,383.035v9.035a8.5,8.5,0,0,0,16.993,0v-8.848q.74-.225,1.465-.489v9.4a10.035,10.035,0,1,1-20.069,0v-9.677Q227.783,382.768,228.6,383.035Z" transform="translate(-186.213 -283.953)" fill="#3b434f"/>
      <path id="Rounded_Rectangle_14" data-name="Rounded Rectangle 14" d="M224.952,434.76a.952.952,0,0,1,.952.952v14.356a.952.952,0,0,1-1.9,0V435.712A.952.952,0,0,1,224.952,434.76Z" transform="translate(-184.251 -318.301)" fill="#3b434f"/>
      <path id="Rounded_Rectangle_15" data-name="Rounded Rectangle 15" d="M283.052,434.333a1.025,1.025,0,0,1,1.025,1.025v8.936a1.025,1.025,0,0,1-2.051,0v-8.936A1.025,1.025,0,0,1,283.052,434.333Z" transform="translate(-222.356 -318.021)" fill="#3b434f"/>
      <path id="Rounded_Rectangle_16" data-name="Rounded Rectangle 16" d="M225.793,479.133a.513.513,0,0,1,.513.513v3.662a.513.513,0,0,1-1.025,0v-3.662A.513.513,0,0,1,225.793,479.133Z" transform="translate(-185.092 -347.44)" fill="#3b434f"/>
      <path id="Rounded_Rectangle_16_copy" data-name="Rounded Rectangle 16 copy" d="M284.246,463.347a.513.513,0,0,1,.513.513v3.662a.513.513,0,0,1-1.025,0v-3.662A.513.513,0,0,1,284.246,463.347Z" transform="translate(-223.476 -337.073)" fill="#3b434f"/>
      <path id="Shape_1_copy" data-name="Shape 1 copy" d="M180.784,373.646l-9.278,2.13s-11.362,2.574-3.8,10.231,27,9.01,27,9.01-5.14-2.435-7.324-5.86l-.732-12.305Z" transform="translate(-145.579 -278.17)" fill="#f5f3ef"/>
      <path id="Shape_1_copy_2" data-name="Shape 1 copy 2" d="M193.319,394.6c-.576.729-16.764.228-27.979-9.522-8.121-7.059,4.1-11.133,4.1-11.133l8.936-2.051,7.764,3.955.586,11.866C190,392.839,194.246,393.426,193.319,394.6Zm-8.057-6.3-.879-12.452-4.688-2.637-8.936,2.2s-10.824,2.219-3.955,8.643c7.412,6.932,21.125,8.792,22.559,8.643C190.851,392.54,188.531,393.425,185.262,388.3Z" transform="translate(-143.902 -277.019)" fill="#3b434f" fill-rule="evenodd"/>
      <path id="Shape_1_copy_4" data-name="Shape 1 copy 4" d="M275.421,374.651l9.284,2.137s11.369,2.581,3.805,10.262-27.016,9.037-27.016,9.037,5.143-2.442,7.329-5.877l.733-12.342Z" transform="translate(-208.872 -278.83)" fill="#f5f3ef"/>
      <path id="Shape_1_copy_6" data-name="Shape 1 copy 6" d="M260.393,395.24c.576.731,16.774.228,28-9.55,8.126-7.08-4.1-11.167-4.1-11.167l-8.941-2.057-7.768,3.967-.586,11.9C263.719,393.475,259.466,394.064,260.393,395.24Zm8.062-6.318.879-12.489,4.69-2.645,8.941,2.2s10.83,2.226,3.958,8.669c-7.417,6.953-21.137,8.819-22.573,8.669C262.863,393.175,265.184,394.063,268.455,388.923Z" transform="translate(-208.064 -277.395)" fill="#3b434f" fill-rule="evenodd"/>
      <path id="_2_copy_5" data-name="2 copy 5" d="M194.723,116.467c18.223,0,32.607,17.03,32.14,37.491l-.5,21.747c-.441,19.277-14.6,34.514-31.642,34.514s-31.2-15.237-31.642-34.514l-.5-21.747C162.116,133.5,176.5,116.467,194.723,116.467Z" transform="translate(-143.914 -109.289)" fill="#fff"/>
      <path id="_2_line" data-name="2 line" d="M225.245,149.081l-.521,22.631c-.462,20.06-15.3,35.917-33.156,35.917s-32.694-15.856-33.156-35.917l-.521-22.631c-.49-21.293,14.582-39.015,33.677-39.015S225.735,127.788,225.245,149.081Zm-33.75-36.671c-17.974,0-32.161,16.9-31.7,37.2l.49,21.577c.435,19.126,14.4,34.245,31.21,34.245s30.775-15.118,31.21-34.245l.49-21.577C223.656,129.307,209.469,112.41,191.495,112.41Z" transform="translate(-140.832 -105.086)" fill="#3b434f" fill-rule="evenodd"/>
      <path id="_1_copy_4" data-name="1 copy 4" d="M224.226,234.653l-1.465,24.024s-6.506,27.731-31.642,31.015v.041l-.146-.02-.147.02v-.041c-25.135-3.284-31.642-31.015-31.642-31.015l-1.465-24.024c6.523,28.952,12.012,30.763,12.012,30.763-1.111-8.779,7.91-7.91,7.91-7.91a113.778,113.778,0,0,0,13.331,1.545,113.778,113.778,0,0,0,13.331-1.545s9.021-.869,7.91,7.91C212.214,265.416,217.7,263.606,224.226,234.653Zm-16.289,33.74c-.426-5.164-3.541-4.726-3.541-4.726a90.824,90.824,0,0,1-13.277,2.994v-.034a90.281,90.281,0,0,1-13.184-2.969s-3.092-.434-3.516,4.688c0,0-1.242,5.132,2.93,7.324l5.274,5.567s3.6,1.142,3.516-3.223c0,0-.367-3.255,1.758-3.809h3.223v.1h3.245c2.14.558,1.77,3.84,1.77,3.84-.089,4.4,3.541,3.249,3.541,3.249l5.311-5.613C209.188,273.568,207.937,268.394,207.937,268.394Z" transform="translate(-140.728 -186.898)" fill="#3b434f" fill-rule="evenodd" opacity="0.059"/>
      <path id="usta" d="M241.949,324.35c-2.663,2.312-8.677,4.512-15.674,4.512s-13.012-2.2-15.674-4.512c0,0-.272-.75.127-1.149a1.354,1.354,0,0,1,1.045-.319c2.66,2.314,7.5,4.222,14.5,4.222s11.843-1.908,14.5-4.222c0,0,.651-.242.967.074A1.237,1.237,0,0,1,241.949,324.35Z" transform="translate(-175.393 -244.777)" fill="#3b434f"/>
      <path id="_-" data-name="-" d="M242.347,350.707h9.375v1.465h-9.375Z" transform="translate(-196.299 -263.106)" fill="#3b434f"/>
      <path id="Shape_11_copy" data-name="Shape 11 copy" d="M143.935,231.948a3.554,3.554,0,0,0-1.031-.5,4.844,4.844,0,0,0-1.228-.214c-.119-.005-.241-.007-.366,0s-.253.012-.383.026a4.7,4.7,0,0,0-.8.155,4.3,4.3,0,0,0-2.834,2.627,8.81,8.81,0,0,0-.6,2.989q-.021.46-.012.968t.051,1.065c.056.743.157,1.553.308,2.436a18.109,18.109,0,0,0,.813,5.734c.9,3,3.051,6.681,7.027,7.733-.457-7.615-.472-15.373-.95-23.021Z" transform="translate(-126.913 -184.652)" fill="#fff"/>
      <path id="Shape_3" data-name="Shape 3" d="M142.708,229.42s-6.927-2.146-6.683,4.975c0,0,1.031,10.327,1.479,11.278,0,0,2.721,6.012,7.21,6.279h0l.054,1.938s-7.891-1.012-9.416-10.106l-1.2-8.262s-.934-10.933,8.127-8.153h0l.431,2.051" transform="translate(-125.232 -181.817)" fill="#3b434f"/>
      <path id="Shape_4" data-name="Shape 4" d="M148.353,257.971a1.494,1.494,0,0,1-.721.293,1.469,1.469,0,0,1-.716-.293l-.715-7.2s.986-3.548,5.172-1.673l.1,2.06s-3.672-1.3-3.6.319C147.949,253.034,148.353,257.971,148.353,257.971Z" transform="translate(-133.164 -196.021)" fill="#3b434f"/>
      <path id="Shape_11_copy_1" data-name="Shape 11 copy_1" d="M351.989,232a3.576,3.576,0,0,1,1.036-.495,4.889,4.889,0,0,1,1.234-.214c.119-.005.242-.007.368,0s.254.012.385.026a4.74,4.74,0,0,1,.8.155,4.309,4.309,0,0,1,2.846,2.625,8.765,8.765,0,0,1,.6,2.987q.021.46.012.967t-.051,1.064c-.056.742-.158,1.552-.31,2.434a18.009,18.009,0,0,1-.817,5.73c-.9,3-3.064,6.676-7.058,7.728.459-7.61.474-15.362.954-23.005Z" transform="translate(-267.671 -184.685)" fill="#fff"/>
      <path id="Shape_3_1" data-name="Shape 3_1" d="M344.882,229.471s6.958-2.145,6.713,4.972c0,0-1.036,10.32-1.486,11.271,0,0-2.732,6.008-7.242,6.275h0l-.055,1.937s7.926-1.011,9.457-10.1l1.208-8.256s.938-10.926-8.162-8.148h0l-.433,2.049" transform="translate(-261.021 -181.852)" fill="#3b434f"/>
      <path id="Shape_4_1" data-name="Shape 4_1" d="M353.179,258a1.5,1.5,0,0,0,.724.293,1.479,1.479,0,0,0,.719-.293l.718-7.2s-.991-3.545-5.195-1.672l-.1,2.059s3.688-1.3,3.612.319C353.585,253.069,353.179,258,353.179,258Z" transform="translate(-267.022 -196.047)" fill="#3b434f"/>
      <path id="new_vector_shape_done" d="M257.176,274.333h.513c1.06,1.44,1.491,3.652,2.051,5.567a4.237,4.237,0,0,1-.146,2.051c-.555,1.537-2.3,1.509-3.735,2.2a4.028,4.028,0,0,1-1.172.586c-.326-.287-.719-.343-.879-.806-.4-.545.114-.885.513-1.1.723-.388,2.955-.77,3.223-1.465.331-.376.111-1.507,0-1.9a22.3,22.3,0,0,0-.806-2.783c-.256-.609-.706-1.252-.439-1.978A3.848,3.848,0,0,0,257.176,274.333Z" transform="translate(-203.731 -212.954)" fill="#3b434f" fill-rule="evenodd"/>
      <path id="Rounded_Rectangle_9" data-name="Rounded Rectangle 9" d="M199.292,244.211h5.274a1.608,1.608,0,0,1,0,3.164h-5.274a1.608,1.608,0,0,1,0-3.164Z" transform="translate(-167.161 -193.174)" fill="#3b434f"/>
      <path id="Rounded_Rectangle_9_copy" data-name="Rounded Rectangle 9 copy" d="M293.158,243.187h5.274a1.608,1.608,0,0,1,0,3.164h-5.274a1.608,1.608,0,0,1,0-3.164Z" transform="translate(-228.8 -192.501)" fill="#3b434f"/>
      <path id="glasses" d="M222.774,224.259c-.2,1.693-.372,3.764-.738,5.616-1.094,5.537-5.853,10.668-13.977,11.252s-15.039-3.506-15.445-9.136c-.069-.955-.252-2.026-.394-3.067a3.55,3.55,0,0,0-3.555,0c-.143,1.065-.333,2.164-.4,3.142-.406,5.649-7.343,9.752-15.493,9.166s-12.923-5.734-14.021-11.29c-.367-1.858-.542-3.936-.741-5.634l-1.2-.086.168-2.338.292.021,7.412.533,6.257.45,6.268.451,9.763.7a1.87,1.87,0,0,1,1.409.805,4.778,4.778,0,0,0,4.085.007,1.854,1.854,0,0,1,1.438-.856l9.733-.7,6.249-.45,6.237-.449,7.389-.532.291-.021.168,2.33Zm-38.426,2.526-19.135-1.377c-2.5-.216-3.39,2.6-3.544,4.74-.325,4.519,4.71,8.564,11.246,9.034s12.1-2.812,12.424-7.331C185.494,229.708,186.194,228.384,184.348,226.785Zm34.775,3.3c-.154-2.136-1.038-4.939-3.533-4.724l-19.074,1.372c-1.84,1.594-1.142,2.913-.988,5.05.324,4.5,5.869,7.775,12.385,7.306S219.447,234.588,219.123,230.084Z" transform="translate(-140.13 -178.486)" fill="#3b444f" fill-rule="evenodd"/>
      <path id="Shape_7" data-name="Shape 7" d="M158.509,152.4s4.075-17.852,7.621-22.735,6.615-6.051,8.208-6.2,14.136,3.558,31.365-.689a10.5,10.5,0,0,1,9.673,6.545s6.072,10.862,7.035,21.7h1.173s2.485-19,1.466-30.313-15.829-16.879-15.829-16.879l3.224-2.411s-7.528-2.327-10.553-1.033l2.345-4.823s-15.193.03-23.744,6.889L180.787,99s-30.141,4.622-23.744,52.7Z" transform="translate(-139.698 -95.56)" fill="#3b434f"/>
    </g>
    <rect id="Rectangle_616" data-name="Rectangle 616" width="77" height="56" rx="8" transform="translate(171.482 276)" fill="#fff"/>
    <g id="fbe5e93ccaacf55a2561c3797f8d1abd" transform="translate(172.431 275.537)">
      <path id="Path_537" data-name="Path 537" d="M65.38,117.751H9.124A9.129,9.129,0,0,1,0,108.627v-38.5A9.129,9.129,0,0,1,9.124,61H65.38A9.129,9.129,0,0,1,74.5,70.124v38.5A9.129,9.129,0,0,1,65.38,117.751ZM9.124,62.979a7.148,7.148,0,0,0-7.145,7.145v38.5a7.148,7.148,0,0,0,7.145,7.145H65.38a7.148,7.148,0,0,0,7.145-7.145v-38.5a7.148,7.148,0,0,0-7.145-7.145Z" transform="translate(0 -61)" fill=""/>
      <path id="Path_538" data-name="Path 538" d="M47.3,125.595c-4.191,0-7.6-3.085-7.6-6.868s3.405-6.868,7.6-6.868,7.6,3.085,7.6,6.868S51.49,125.595,47.3,125.595Zm0-11.758c-3.1,0-5.617,2.2-5.617,4.889s2.517,4.889,5.617,4.889,5.617-2.2,5.617-4.889S50.4,113.837,47.3,113.837Zm9.91,32.683H37.39a.991.991,0,0,1-.99-.99v-8.28A10.359,10.359,0,0,1,46.746,126.9h1.135a10.359,10.359,0,0,1,10.346,10.346v8.28A1.025,1.025,0,0,1,57.209,146.52Zm-18.83-1.979h17.84v-7.29a8.362,8.362,0,0,0-8.353-8.353H46.732a8.353,8.353,0,0,0-8.353,8.353v7.29Zm52.415-9.91H70.654a8.961,8.961,0,0,1-8.949-8.949v-4.933a8.961,8.961,0,0,1,8.949-8.949H90.794a8.961,8.961,0,0,1,8.949,8.949v4.933a8.943,8.943,0,0,1-8.949,8.949ZM70.654,113.779a6.98,6.98,0,0,0-6.97,6.97v4.933a6.98,6.98,0,0,0,6.97,6.97H90.794a6.98,6.98,0,0,0,6.97-6.97v-4.933a6.98,6.98,0,0,0-6.97-6.97Zm28.114,26.6h-32.3a.99.99,0,0,1,0-1.979h32.3a.99.99,0,0,1,0,1.979Zm0,5.675h-32.3a.99.99,0,1,1,0-1.979h32.3a.99.99,0,1,1,0,1.979Zm0,5.661h-32.3a.99.99,0,0,1,0-1.979h32.3a.99.99,0,0,1,0,1.979Zm-41.559,0H37.39a.99.99,0,0,1,0-1.979H57.223a.991.991,0,0,1,.99.99A1,1,0,0,1,57.209,151.715Z" transform="translate(-31.103 -104.408)" fill="#3b434f"/>
    </g>
    <g id="Group_1101" data-name="Group 1101" transform="translate(-617.288 103.153)">
      <g id="Rectangle_620" data-name="Rectangle 620" transform="translate(817.288 161.847)" fill="#fff" stroke="#3b434f" stroke-width="2">
        <rect width="10" height="20" rx="5" stroke="none"/>
        <rect x="1" y="1" width="8" height="18" rx="4" fill="none"/>
      </g>
      <g id="Rectangle_622" data-name="Rectangle 622" transform="translate(835.288 161.847)" fill="#fff" stroke="#3b434f" stroke-width="2">
        <rect width="10" height="20" rx="5" stroke="none"/>
        <rect x="1" y="1" width="8" height="18" rx="4" fill="none"/>
      </g>
      <g id="Rectangle_621" data-name="Rectangle 621" transform="translate(826.288 161.847)" fill="#fff" stroke="#3b434f" stroke-width="2">
        <rect width="10" height="22" rx="5" stroke="none"/>
        <rect x="1" y="1" width="8" height="20" rx="4" fill="none"/>
      </g>
    </g>
    <g id="Group_1162" data-name="Group 1162" transform="translate(150.448 180.443)">
      <g id="Group_1130" data-name="Group 1130" transform="translate(191.037 0)">
        <g id="Group_1124" data-name="Group 1124" transform="translate(0 0)">
          <path id="Path_567" data-name="Path 567" d="M45.067,45.567V24.777A24.275,24.275,0,0,0,20.79.5H0" transform="translate(0 -0.5)" fill="none" stroke="white" stroke-linecap="round" stroke-miterlimit="10" stroke-width="3"/>
        </g>
      </g>
      <g id="Group_1131" data-name="Group 1131" transform="translate(45.067 160.646) rotate(180)">
        <g id="Group_1124-2" data-name="Group 1124" transform="translate(0 0)">
          <path id="Path_567-2" data-name="Path 567" d="M45.067,45.067V24.277A24.275,24.275,0,0,0,20.79,0H0" fill="none" stroke="white" stroke-linecap="round" stroke-miterlimit="10" stroke-width="3"/>
        </g>
      </g>
      <g id="Group_1132" data-name="Group 1132" transform="translate(0 45.067) rotate(-90)">
        <g id="Group_1124-3" data-name="Group 1124" transform="translate(0 0)">
          <path id="Path_567-3" data-name="Path 567" d="M45.067,45.067V24.277A24.275,24.275,0,0,0,20.79,0H0" fill="none" stroke="white" stroke-linecap="round" stroke-miterlimit="10" stroke-width="3"/>
        </g>
      </g>
      <g id="Group_1133" data-name="Group 1133" transform="translate(236.104 115.578) rotate(90)">
        <g id="Group_1124-4" data-name="Group 1124" transform="translate(0 0)">
          <path id="Path_567-4" data-name="Path 567" d="M45.067,45.067V24.277A24.275,24.275,0,0,0,20.79,0H0" fill="none" stroke="white" stroke-linecap="round" stroke-miterlimit="10" stroke-width="3"/>
        </g>
      </g>
    </g>
  </g>
</svg>
