<svg xmlns="http://www.w3.org/2000/svg" xmlns:xlink="http://www.w3.org/1999/xlink" width="485.957" height="404.807" viewBox="0 0 485.957 404.807">
  <defs>
    <clipPath id="clip-path">
      <rect id="Rectangle_637" data-name="Rectangle 637" width="485.957" height="404.807" fill="none" stroke="#fff" stroke-width="1"/>
    </clipPath>
  </defs>
  <g id="Group_1163" data-name="Group 1163" transform="translate(-21.436 -214.359)">
    <g id="Group_1153" data-name="Group 1153" transform="translate(21.436 214.359)">
      <g id="Group_1152" data-name="Group 1152" clip-path="url(#clip-path)">
        <path id="Path_584" data-name="Path 584" d="M487.913,392.425c-12.964-48.4-65.8-59.86-97.376-66.693-8.451-1.821-15.118-3.275-19.414-5.137-36.329-15.793-48.171-41.147-51.715-59.643a6.4,6.4,0,0,1,2.269-6.157c21.695-17.463,40-46,50.2-78.33a6.673,6.673,0,0,1,1.071-2.013c9.867-12.568,15.309-25.125,15.309-35.335,0-5.813-1.861-10.1-5.851-13.474a6.349,6.349,0,0,1-2.269-4.7C378.488,55.091,332.536,2.88,275.53,2.089L274.167,2c-56.725.331-102.971,51.446-105.8,116.384a6.372,6.372,0,0,1-3.094,5.2c-6.055,3.607-8.744,8.387-8.744,15.513,0,12.2,7.652,27.508,20.972,41.988a6.275,6.275,0,0,1,1.313,2.178c10.07,28.2,26.03,52.709,44.947,69.038a6.374,6.374,0,0,1,2.1,6.03c-2.787,14.553-10.711,33.343-31.628,48.375" transform="translate(-3.906 -0.05)" fill="none" stroke="#fff" stroke-linecap="round" stroke-width="4"/>
        <path id="Path_585" data-name="Path 585" d="M130.879,290.349a11.344,11.344,0,0,0-22.688,0,11.344,11.344,0,0,0-22.688,0,11.344,11.344,0,0,0-22.688,0" transform="translate(-1.567 -6.962)" fill="none" stroke="#fff" stroke-linecap="round" stroke-width="4"/>
        <path id="Path_586" data-name="Path 586" d="M61.741,290.343H11.8a9.8,9.8,0,0,0-9.8,9.8V400.3a9.8,9.8,0,0,0,9.8,9.8H178.86a9.8,9.8,0,0,0,9.8-9.8V300.141a9.8,9.8,0,0,0-9.8-9.8h-49.5" transform="translate(-0.05 -7.245)" fill="none" stroke="#fff" stroke-linecap="round" stroke-width="4"/>
      </g>
      <path id="_053c17faedbf11da210fbf82a097a35b" data-name="053c17faedbf11da210fbf82a097a35b" d="M21.362,4H8.026A4.031,4.031,0,0,0,4,8.026V21.362A4.046,4.046,0,0,0,8.04,25.4H21.376A4.031,4.031,0,0,0,25.4,21.376V8.04A4.046,4.046,0,0,0,21.362,4ZM12.026,5.338h5.351v5.351H12.026ZM10.688,24.065H8.04a2.706,2.706,0,0,1-2.7-2.7V18.714h5.351Zm6.688,0H12.026V18.714h5.351Zm6.688-2.688a2.691,2.691,0,0,1-2.688,2.688H18.714V18.714h5.351Zm0-4H5.338V8.026A2.691,2.691,0,0,1,8.026,5.338h2.662v6.019h0a.668.668,0,0,0,.669.668H24.065Zm0-6.688H18.714V5.338h2.648a2.706,2.706,0,0,1,2.7,2.7Z" transform="translate(22.564 325.34)" fill="#fff" stroke="#fff" stroke-width="1"/>
    </g>
    <g id="c76fe7c3e41c16b58c6c984ca0361b5a" transform="translate(118 505.945)">
      <path id="Path_597" data-name="Path 597" d="M64.244,30.464,48.521,25.009l-1.066-8.532A5.749,5.749,0,0,1,44.4,18.693l.967,7.743a1.638,1.638,0,0,0,1.1,1.354l16.691,5.8a9.177,9.177,0,0,1,5.577,7.862v-.023a1.651,1.651,0,0,0,3.3.007A12.462,12.462,0,0,0,64.244,30.464ZM7.651,43.073A1.652,1.652,0,0,1,6,41.422v.023a12.461,12.461,0,0,1,7.789-10.982l15.723-5.418.04-.925a1.652,1.652,0,1,1,3.279.413l-.168,1.945a1.646,1.646,0,0,1-1.1,1.354L14.875,33.584A9.187,9.187,0,0,0,9.3,41.445v-.023A1.649,1.649,0,0,1,7.651,43.073Z" transform="translate(11.509 35.625)" fill="#fff"/>
      <path id="Path_598" data-name="Path 598" d="M25.67,43.359C16.494,43.359,11.829,37.27,11.8,22c-.007-3.876.406-7.8,4.051-11.454,2.321-2.328,5.623-3.507,9.82-3.507s7.5,1.179,9.823,3.51C39.138,14.2,39.551,18.127,39.544,22,39.511,37.27,34.846,43.359,25.67,43.359Zm0-33.018c-3.332,0-5.778.832-7.485,2.539C16.1,14.97,15.088,16.842,15.1,22c.026,13.267,3.483,18.064,10.569,18.064S36.209,35.263,36.236,22c.01-5.154-1-7.026-3.087-9.116C31.448,11.173,29,10.341,25.67,10.341Z" transform="translate(24.857 13.901)" fill="#fff"/>
    </g>
    <path id="Path_599" data-name="Path 599" d="M4764.953,467.111s13.948,16,39.77,27.673,55.741-23.279,55.741-23.279" transform="translate(-4523)" fill="none" stroke="#fff" stroke-width="4"/>
  </g>
</svg>
