<svg xmlns="http://www.w3.org/2000/svg" width="91.26" height="62.573" viewBox="0 0 91.26 62.573">
  <g id="Group_1143" data-name="Group 1143" transform="translate(-52.311 -717.162)">
    <g id="Group_1129" data-name="Group 1129" transform="translate(65.15 722.808)">
      <path id="d329499686a5f1d7c2d7a6424a353534" d="M38.648,31.95l-8.7-1.941c.01-.142.045-.265.045-.414V28.234a10.541,10.541,0,0,0,4.959-8.925v-1.65A7.743,7.743,0,0,0,36.139,16.1a8.165,8.165,0,0,0,.955-4.623,9.266,9.266,0,0,0-1.65-4.741A9.416,9.416,0,0,0,30.175,3.22c-2.507-.578-4.93.091-8.021.944a19.646,19.646,0,0,1-3.312.6,6.357,6.357,0,0,1-1.477.058c-1.229-.263-2.143-2.344-2.589-4.2A.8.8,0,0,0,13.518.159a7.536,7.536,0,0,0-2.982,6.523,6.3,6.3,0,0,0,1.358,3.039,11.788,11.788,0,0,0,.327,4.358,11.646,11.646,0,0,0,1.618,3.483v1.747a10.429,10.429,0,0,0,3.1,7.46A10.544,10.544,0,0,0,18.8,28.232V29.6c0,.151.034.271.044.414l-8.7,1.94A10.328,10.328,0,0,0,2,42.089v8.3a.8.8,0,0,0,.8.8H45.993a.8.8,0,0,0,.8-.8v-8.3A10.327,10.327,0,0,0,38.648,31.95Zm-18.161-1.5a3.759,3.759,0,0,1-.09-.855v-.522a10.474,10.474,0,0,0,8,0V29.6a3.758,3.758,0,0,1-.094.87,4,4,0,0,1-7.815-.015Zm-5.533-18.9-.687,3.535a10.072,10.072,0,0,1-.744-5.5.8.8,0,0,0-.2-.65,4.8,4.8,0,0,1-1.208-2.485,5.279,5.279,0,0,1,1.475-4.161c.576,1.711,1.624,3.7,3.437,4.09a6.586,6.586,0,0,0,1.961-.028A21.463,21.463,0,0,0,22.6,5.7c2.961-.816,5.1-1.4,7.214-.92a7.736,7.736,0,0,1,4.329,2.886A7.63,7.63,0,0,1,35.5,11.571a6.852,6.852,0,0,1-.374,2.928,5.64,5.64,0,0,0-1.117-2.765,4.521,4.521,0,0,0-1.563-1.326,5.139,5.139,0,0,0-3.466-.183c-.274.052-.55.105-.826.142a37.961,37.961,0,0,0-3.754.758,15.914,15.914,0,0,1-5.519.687,9.457,9.457,0,0,1-2.8-.83.8.8,0,0,0-1.126.571Zm.484,7.754V17.453l.9-4.63a10.96,10.96,0,0,0,2.331.576,16.856,16.856,0,0,0,6.1-.716,36.547,36.547,0,0,1,3.6-.729c.306-.041.611-.1.914-.157a3.75,3.75,0,0,1,2.449.041,2.979,2.979,0,0,1,1.019.88,5.486,5.486,0,0,1,.63,4.445c-.006.024.009.046.005.07a.753.753,0,0,0-.025.124v1.951a8.946,8.946,0,0,1-15.29,6.327,8.841,8.841,0,0,1-2.627-6.327ZM45.193,49.592h-8v-5.6a.8.8,0,0,0-1.6,0v5.6H13.2v-5.6a.8.8,0,0,0-1.6,0v5.6h-8v-7.5a8.738,8.738,0,0,1,6.893-8.578l8.673-1.936a5.588,5.588,0,0,0,10.46,0L38.3,33.512a8.737,8.737,0,0,1,6.893,8.577Z" transform="translate(15.33 0)" fill="#3b434f"/>
      <rect id="Rectangle_635" data-name="Rectangle 635" width="41.529" height="11.866" transform="translate(18.968 41.213)" fill="#fff"/>
      <g id="Group_1144" data-name="Group 1144" transform="translate(0 20.701)">
        <rect id="Rectangle_616" data-name="Rectangle 616" width="27.562" height="20.716" rx="2" transform="translate(0 3.453)" fill="#fff"/>
        <g id="fbe5e93ccaacf55a2561c3797f8d1abd" transform="translate(0 3.281)">
          <path id="Path_537" data-name="Path 537" d="M24.186,81.994H3.375A3.377,3.377,0,0,1,0,78.619V64.375A3.377,3.377,0,0,1,3.375,61H24.186a3.377,3.377,0,0,1,3.375,3.375V78.619A3.377,3.377,0,0,1,24.186,81.994ZM3.375,61.732A2.644,2.644,0,0,0,.732,64.375V78.619a2.644,2.644,0,0,0,2.643,2.643H24.186a2.644,2.644,0,0,0,2.643-2.643V64.375a2.644,2.644,0,0,0-2.643-2.643Z" transform="translate(0 -61)" fill="#3b434f" stroke="#3b434f" stroke-width="0.2"/>
          <path id="Path_538" data-name="Path 538" d="M40.432,116.9a2.554,2.554,0,1,1,2.81-2.541A2.689,2.689,0,0,1,40.432,116.9Zm0-4.35a1.826,1.826,0,1,0,2.078,1.809A1.96,1.96,0,0,0,40.432,112.554ZM44.1,124.644H36.766a.366.366,0,0,1-.366-.366v-3.063a3.832,3.832,0,0,1,3.827-3.827h.42a3.832,3.832,0,0,1,3.827,3.827v3.063A.379.379,0,0,1,44.1,124.644Zm-6.966-.732h6.6v-2.7a3.093,3.093,0,0,0-3.09-3.09h-.42a3.09,3.09,0,0,0-3.09,3.09Zm19.39-3.666h-7.45a3.315,3.315,0,0,1-3.311-3.311v-1.825a3.315,3.315,0,0,1,3.311-3.311h7.45a3.315,3.315,0,0,1,3.311,3.311v1.825a3.308,3.308,0,0,1-3.311,3.311Zm-7.45-7.714a2.582,2.582,0,0,0-2.579,2.579v1.825a2.582,2.582,0,0,0,2.579,2.579h7.45a2.582,2.582,0,0,0,2.579-2.579v-1.825a2.582,2.582,0,0,0-2.579-2.579Zm10.4,9.84H47.522a.366.366,0,1,1,0-.732H59.472a.366.366,0,1,1,0,.732Zm0,2.1H47.522a.366.366,0,1,1,0-.732H59.472a.366.366,0,1,1,0,.732Zm0,2.094H47.522a.366.366,0,1,1,0-.732H59.472a.366.366,0,1,1,0,.732Zm-15.374,0H36.766a.366.366,0,1,1,0-.732H44.1a.366.366,0,0,1,.366.366A.371.371,0,0,1,44.1,126.566Z" transform="translate(-34.441 -109.065)" fill="#3b434f" stroke="#3b434f" stroke-width="0.2"/>
        </g>
        <g id="Group_1101" data-name="Group 1101" transform="translate(8.07 0)">
          <g id="Rectangle_620" data-name="Rectangle 620" transform="translate(0 0)" fill="#fff" stroke="#3b434f" stroke-width="0.5">
            <rect width="3.946" height="5.919" rx="1.973" stroke="none"/>
            <rect x="0.25" y="0.25" width="3.446" height="5.419" rx="1.723" fill="none"/>
          </g>
          <g id="Rectangle_622" data-name="Rectangle 622" transform="translate(7.892 0)" fill="#fff" stroke="#3b434f" stroke-width="0.5">
            <rect width="3.946" height="5.919" rx="1.973" stroke="none"/>
            <rect x="0.25" y="0.25" width="3.446" height="5.419" rx="1.723" fill="none"/>
          </g>
          <g id="Rectangle_621" data-name="Rectangle 621" transform="translate(3.946 0)" fill="#fff" stroke="#3b434f" stroke-width="0.5">
            <rect width="3.946" height="6.409" rx="1.973" stroke="none"/>
            <rect x="0.25" y="0.25" width="3.446" height="5.909" rx="1.723" fill="none"/>
          </g>
        </g>
      </g>
    </g>
    <g id="Group_1134" data-name="Group 1134" transform="translate(53.061 717.912)">
      <g id="Group_1130" data-name="Group 1130" transform="translate(72.627)">
        <g id="Group_1124" data-name="Group 1124" transform="translate(0 0)">
          <path id="Path_567" data-name="Path 567" d="M17.133,17.633v-7.9A9.229,9.229,0,0,0,7.9.5H0" transform="translate(0 -0.5)" fill="none" stroke="#3b434f" stroke-linecap="round" stroke-miterlimit="10" stroke-width="1.5"/>
        </g>
      </g>
      <g id="Group_1131" data-name="Group 1131" transform="translate(17.133 61.073) rotate(180)">
        <g id="Group_1124-2" data-name="Group 1124" transform="translate(0 0)">
          <path id="Path_567-2" data-name="Path 567" d="M17.133,17.133v-7.9A9.229,9.229,0,0,0,7.9,0H0" fill="none" stroke="#3b434f" stroke-linecap="round" stroke-miterlimit="10" stroke-width="1.5"/>
        </g>
      </g>
      <g id="Group_1132" data-name="Group 1132" transform="translate(0 17.133) rotate(-90)">
        <g id="Group_1124-3" data-name="Group 1124" transform="translate(0 0)">
          <path id="Path_567-3" data-name="Path 567" d="M17.133,17.133v-7.9A9.229,9.229,0,0,0,7.9,0H0" fill="none" stroke="#3b434f" stroke-linecap="round" stroke-miterlimit="10" stroke-width="1.5"/>
        </g>
      </g>
      <g id="Group_1133" data-name="Group 1133" transform="translate(89.76 43.939) rotate(90)">
        <g id="Group_1124-4" data-name="Group 1124" transform="translate(0 0)">
          <path id="Path_567-4" data-name="Path 567" d="M17.133,17.133v-7.9A9.229,9.229,0,0,0,7.9,0H0" fill="none" stroke="#3b434f" stroke-linecap="round" stroke-miterlimit="10" stroke-width="1.5"/>
        </g>
      </g>
    </g>
    <g id="c8fd0ffcf039ecbd51c73c956e001bf5" transform="translate(60.477 723.975)">
      <path id="Path_572" data-name="Path 572" d="M13.4,18.143H3.52A1.52,1.52,0,0,1,2,16.623V9.02A1.52,1.52,0,0,1,3.52,7.5H13.4a1.52,1.52,0,0,1,1.52,1.52v7.6A1.52,1.52,0,0,1,13.4,18.143Z" transform="translate(-2 -7.5)" fill="#3b434f"/>
      <path id="Path_573" data-name="Path 573" d="M21,10.749v4.561l3.379,2.253a.76.76,0,0,0,1.182-.633v-7.8A.76.76,0,0,0,24.379,8.5Z" transform="translate(-6.555 -7.708)" fill="#3b434f"/>
    </g>
  </g>
</svg>
