<svg xmlns="http://www.w3.org/2000/svg" width="70" height="70" viewBox="0 0 70 70">
  <g id="Group_1165" data-name="Group 1165" transform="translate(-61 -677)">
    <g id="Group_1149" data-name="Group 1149" transform="translate(0 79)">
      <g id="Group_1148" data-name="Group 1148" transform="translate(-163 18.828)">
        <circle id="Ellipse_69" data-name="Ellipse 69" cx="35" cy="35" r="35" transform="translate(224 579.172)" fill="#ec5a54"/>
      </g>
    </g>
    <path id="_7119c99a0678f6fcdeaba7f4f9a2f1ba" data-name="7119c99a0678f6fcdeaba7f4f9a2f1ba" d="M29.207,2H6.8A4.8,4.8,0,0,0,2,6.8V29.207a4.8,4.8,0,0,0,4.8,4.8H29.207a4.5,4.5,0,0,0,.784-.08l.48-.112h.192l.592-.224.208-.112c.16-.1.336-.176.5-.288a6.066,6.066,0,0,0,.608-.512l.112-.144a4.3,4.3,0,0,0,.432-.512l.144-.208a3.7,3.7,0,0,0,.288-.56,1.6,1.6,0,0,0,.112-.24c.08-.192.128-.4.192-.608v-.24a4.161,4.161,0,0,0,.16-.96V6.8A4.8,4.8,0,0,0,29.207,2ZM6.8,30.807a1.6,1.6,0,0,1-1.6-1.6v-6.9l5.265-5.281h0a1.6,1.6,0,0,1,2.273,0L26.5,30.807Zm24.006-1.6a1.3,1.3,0,0,1-.24.8,1.5,1.5,0,0,1-.144.192l-8.562-8.562,1.408-1.408a1.6,1.6,0,0,1,2.273,0h0l5.265,5.281Zm0-8.226L27.8,18a4.929,4.929,0,0,0-6.786,0L19.6,19.412,15,14.8a4.929,4.929,0,0,0-6.786,0L5.2,17.78V6.8A1.6,1.6,0,0,1,6.8,5.2H29.207a1.6,1.6,0,0,1,1.6,1.6ZM20.4,8.4a2.4,2.4,0,1,0,2.4,2.4A2.4,2.4,0,0,0,20.4,8.4Z" transform="translate(77.996 691.992)" fill="#fff"/>
  </g>
</svg>
