<svg xmlns="http://www.w3.org/2000/svg" xmlns:xlink="http://www.w3.org/1999/xlink" width="455.436" height="285.025" viewBox="0 0 455.436 285.025">
  <defs>
    <clipPath id="clip-path">
      <rect id="Rectangle_639" data-name="Rectangle 639" width="453.708" height="283.295" fill="none"/>
    </clipPath>
    <clipPath id="clip-path-2">
      <rect id="Rectangle_642" data-name="Rectangle 642" width="68.691" height="54.245" fill="none"/>
    </clipPath>
  </defs>
  <g id="Group_1158" data-name="Group 1158" transform="translate(0.864 0.865)">
    <g id="Group_1155" data-name="Group 1155">
      <g id="Group_1154" data-name="Group 1154" clip-path="url(#clip-path)">
        <path id="Rectangle_638" data-name="Rectangle 638" d="M8.816,0H38.788A8.816,8.816,0,0,1,47.6,8.816V25.63a8.816,8.816,0,0,1-8.816,8.816H8.815A8.815,8.815,0,0,1,0,25.631V8.816A8.816,8.816,0,0,1,8.816,0Z" transform="translate(301.338 216.28)" fill="none" stroke="#fff" stroke-miterlimit="10" stroke-width="3"/>
        <g id="Group_1161" data-name="Group 1161" transform="translate(22.354 11.18)">
          <g id="Group_1161-2" data-name="Group 1161" clip-path="url(#clip-path-2)">
            <path id="Path_592" data-name="Path 592" d="M121.078,27.128a7.182,7.182,0,0,0,5.93-11.229l-.157-.239-.345.132.081.175a6.128,6.128,0,0,1,.62,2.7,6.186,6.186,0,1,1-11.73-2.745l.053-.088-.262-.084-.183.249a7.175,7.175,0,0,0,5.994,11.126" transform="translate(-86.732 -11.925)" fill="#fff"/>
            <path id="Path_593" data-name="Path 593" d="M121.446,7.577l.114.246,2.5-.56-1.172,2.282.21.172,2.013-1.591-.066,2.564.264.064,1.123-2.306,1.054,2.339.265-.056.011-2.565,1.964,1.65.215-.166-1.1-2.315,2.484.633.121-.243-2-1.607,2.515-.507,0-.271-2.5-.581,2.047-1.548-.114-.246-2.5.56,1.173-2.281-.21-.172-2.013,1.591L127.914.1,127.65.032l-1.123,2.307L125.474,0l-.266.056L125.2,2.622,123.233.972l-.215.166,1.1,2.315-2.486-.633-.121.243,2,1.608L121,5.177l0,.271,2.5.581Z" transform="translate(-92.136 0)" fill="#fff"/>
            <path id="Path_594" data-name="Path 594" d="M20.77,43.156a2.8,2.8,0,0,0-1.124.825,4.051,4.051,0,0,0-.232.577A3.342,3.342,0,0,1,18.4,46.251c-.592.406-1.7.45-3.289.13a.348.348,0,0,1-.265-.212c-.28-.611.341-2.208.625-2.712a4.44,4.44,0,0,0-1.161-5.618,16.836,16.836,0,0,0,2.413-4.317l0-.008c.188-.2.432-.4.6-.344.081.027.159-.043.229-.16h0c.219.191.5.437.588.524a.945.945,0,0,1,.213.564.211.211,0,0,0,.082.173c.114.088.283.043.5-.014a1.146,1.146,0,0,1,.369-.063,10.467,10.467,0,0,1,1.456.507l0-4.281h5.508a.908.908,0,0,0-.185-1.127c-.018-.018-.045-.052-.077-.091A2.131,2.131,0,0,0,24.4,28.32a2.693,2.693,0,0,1-1.41-.741,4.164,4.164,0,0,0-1.446-.853,5.413,5.413,0,0,0-3.01.469c-.11.041-.2.077-.275.1-.147.036-.329.077-.5.114a1.13,1.13,0,0,1-.341-.011l.5-1.446a3.728,3.728,0,0,1,1.686-.353.362.362,0,0,0,.343-.08c.371-.333.233-1.469.231-1.48a1.485,1.485,0,0,0-.363-.727l-.076-.08.213-.16c.111-.083,1.086-.833,1.143-1.5.043-.525.126-.979.147-1.09l.345-.544.076-.12-.115-.083c-.069-.05-.69-.489-1.109-.368-.136.039-.476-.14-.724-.271a1.472,1.472,0,0,0-.755-.265,5.35,5.35,0,0,1-1.77-.556c-.209-.083-.543.077-1.068.35a3.216,3.216,0,0,1-.566.259l-.108.019a4.106,4.106,0,0,1-1.8.053l-.162-.1-.061.182a.9.9,0,0,0,.05.685.56.56,0,0,0,.172.173,6.083,6.083,0,0,0-2.213,2.6l-.435.339-.045.035-.01.057-.1.54a5.95,5.95,0,0,0-.559,1.213,12.591,12.591,0,0,0-1.5,1.622,6.173,6.173,0,0,0-.061,1.215,20.241,20.241,0,0,1-.355,4.315c-.1.321-.19.627-.275.923a6.527,6.527,0,0,1-1.444,2.99c-.614.644-2.545,2.756-2.795,4.067a2.594,2.594,0,0,1-1.006-.477,1.353,1.353,0,0,1-.258-.326,1.244,1.244,0,0,1-.065-.141.831.831,0,0,1-.028-.1c-.207-1.189.992-2.957,1.725-3.9a9.289,9.289,0,0,0,1.108-1.849,5.315,5.315,0,0,0,.215-.535l0-.009c.008-.024.016-.049.024-.073a3.779,3.779,0,0,0,.227-1.778,10.626,10.626,0,0,0-.363-1.434h0C5,27.857,4.276,26.343,3.4,25.905a1.132,1.132,0,0,0-1.08.007.742.742,0,0,0-.41.509c-.15.686.641,1.7,1.277,2.523.117.151.233.3.333.435A3.036,3.036,0,0,1,3.9,30.436a6.907,6.907,0,0,1-1.474,3.714c-.564.658-1.939,2.628-2,3.6,0,.068-.012.149-.021.244a6.873,6.873,0,0,0-.041,1V39c.06,1.252.658,2.927,3.765,3.637a.828.828,0,0,1-.05.824.8.8,0,0,0,.021.987c.077.106.112.154.073.272a6.122,6.122,0,0,1-.789,1.591.963.963,0,0,0-.137.774c.005.064.01.129.012.192a1.282,1.282,0,0,0-.074.335,1.152,1.152,0,0,0-.067.731,1.821,1.821,0,0,1,.018.425,1.061,1.061,0,0,0,.3.692c.145.2.309.431.271.583a2.432,2.432,0,0,0,.682,1.811l.067.044c.294.193.627.411.587.849-.038.414.214.481.416.536a.9.9,0,0,1,.59.39,3.218,3.218,0,0,0,.552.611c.182.162.213.2.2.312a1.113,1.113,0,0,0,.777,1.2c.4.122.467.265.468.266l.037.147a.653.653,0,0,1,.143-.049l2.467-.64a18.171,18.171,0,0,1-2.814.8c-.4.069-.729.122-1.014.164l-.012-.033-.141.053-.005,0c-1.233.171-1.415.082-1.676-.05a2.53,2.53,0,0,0-.29-.129,8.8,8.8,0,0,1-1.591-1.418,7.992,7.992,0,0,0-1.806-1.565,1,1,0,0,0-1.1.238,1.231,1.231,0,0,0-.076,1.373c.354.742,4.076,4.843,5.855,5.8a2.693,2.693,0,0,0,1.826.214l.138-.021c.095-.014.454-.122,1.257-.365,2.072-.628,7.4-2.239,8.563-2.042a1.02,1.02,0,0,0-.138.68c.071.34.182.769.3,1.224a9.182,9.182,0,0,1,.439,2.3c-.2.75.013,2.849,1.366,3.509,2.5,1.218,10.939,1.882,14.58,1.882s12.069-.664,14.567-1.882c1.35-.658,1.57-2.758,1.366-3.509a9.136,9.136,0,0,1,.439-2.312c.116-.451.226-.877.3-1.213a1.009,1.009,0,0,0-.137-.68c1.167-.2,6.49,1.414,8.562,2.042.8.243,1.163.351,1.257.365l.139.021a2.689,2.689,0,0,0,1.824-.215c1.778-.954,5.5-5.056,5.856-5.8a1.232,1.232,0,0,0-.076-1.374,1,1,0,0,0-1.1-.238,7.989,7.989,0,0,0-1.807,1.566,8.817,8.817,0,0,1-1.589,1.417,2.557,2.557,0,0,0-.291.13c-.26.132-.442.221-1.676.049l-.005,0-.141-.053-.012.032c-.284-.042-.616-.095-1.014-.163-.111-.019-.224-.042-.338-.067l.029-.04a2.259,2.259,0,0,1,.581-.437,1.274,1.274,0,0,0,.742-1.181c-.016-.114.015-.151.2-.313a3.2,3.2,0,0,0,.553-.611.892.892,0,0,1,.589-.39c.2-.054.454-.121.417-.535-.041-.438.293-.657.589-.85l.066-.043a2.421,2.421,0,0,0,.681-1.812c-.037-.151.127-.38.272-.582a1.062,1.062,0,0,0,.3-.692,1.851,1.851,0,0,1,.017-.425,1.155,1.155,0,0,0-.067-.731,1.274,1.274,0,0,0-.074-.332c0-.064.007-.13.012-.194a.963.963,0,0,0-.137-.775,6.177,6.177,0,0,1-.79-1.592c-.039-.117,0-.166.074-.271a.806.806,0,0,0,.021-.987.831.831,0,0,1-.052-.824c3.1-.708,3.7-2.374,3.765-3.623,0-.016,0-.032,0-.048,0-.082.005-.161,0-.239v0c0-.282-.026-.533-.046-.736-.009-.1-.017-.177-.021-.246-.059-.969-1.433-2.939-2-3.6a6.888,6.888,0,0,1-1.474-3.722,3.038,3.038,0,0,1,.379-1.042c.1-.137.219-.288.338-.442.636-.818,1.427-1.837,1.277-2.523a.742.742,0,0,0-.411-.509,1.132,1.132,0,0,0-1.08-.007c-.873.436-1.591,1.935-2.018,3.249l-.017.052a10.548,10.548,0,0,0-.354,1.4,3.755,3.755,0,0,0,.22,1.757,5.23,5.23,0,0,0,.255.652l.042.09.017.036a9.315,9.315,0,0,0,1.043,1.708c.733.948,1.931,2.717,1.724,3.9a.815.815,0,0,1-.027.1,1.281,1.281,0,0,1-.068.147,1.358,1.358,0,0,1-.257.323,2.589,2.589,0,0,1-1.006.478c-.25-1.313-2.181-3.424-2.8-4.067a6.526,6.526,0,0,1-1.446-2.995c-.084-.295-.171-.6-.273-.918a20.184,20.184,0,0,1-.357-4.318,6.157,6.157,0,0,0-.06-1.212,12.47,12.47,0,0,0-1.5-1.622,6.039,6.039,0,0,0-.56-1.213l-.1-.54-.01-.057-.046-.036-.436-.338a6.075,6.075,0,0,0-2.213-2.6.565.565,0,0,0,.172-.173.9.9,0,0,0,.05-.685l-.06-.182-.163.1a3.486,3.486,0,0,1-1.8-.053l-.107-.018a3.235,3.235,0,0,1-.569-.26c-.524-.272-.856-.432-1.059-.352a5.389,5.389,0,0,1-1.776.559,1.4,1.4,0,0,0-.765.309c-.232.14-.582.352-.714.314a1.792,1.792,0,0,0-1.1.272l-.136.079.085.133.347.543c.021.112.1.566.145,1.09.057.668,1.033,1.418,1.144,1.5l.213.16-.076.079a1.489,1.489,0,0,0-.363.727c-.034.239-.095,1.189.231,1.481a.362.362,0,0,0,.342.08,3.728,3.728,0,0,1,1.687.353l.5,1.446a1.129,1.129,0,0,1-.341.011c-.176-.037-.358-.077-.505-.114-.07-.023-.165-.059-.275-.1a5.409,5.409,0,0,0-3.008-.469,4.181,4.181,0,0,0-1.448.853,2.692,2.692,0,0,1-1.409.741,2.133,2.133,0,0,0-1.622.883c-.031.039-.059.073-.076.089a.91.91,0,0,0-.185,1.127h5.661l0,4.217a4.939,4.939,0,0,1,1.369-.443,1.153,1.153,0,0,1,.369.063c.213.057.381.1.495.014a.212.212,0,0,0,.082-.173.939.939,0,0,1,.214-.564c.088-.088.369-.334.589-.525h0c.071.117.148.187.229.16.168-.056.413.147.6.344l0,.008a16.858,16.858,0,0,0,2.414,4.317,4.438,4.438,0,0,0-1.162,5.618c.249.439.909,2.089.624,2.711a.348.348,0,0,1-.265.212c-1.591.321-2.7.277-3.29-.129a3.349,3.349,0,0,1-1.011-1.691,4.051,4.051,0,0,0-.233-.579,2.52,2.52,0,0,0-1.036-.787v.927a13.289,13.289,0,0,1-.61,2.506c.045.026.094.055.153.087.357.194.468.673.576,1.136.135.579.288,1.236,1.019,1.1.828-.157,2.341.69,2.988,1.052.186.1.278.155.333.177a.471.471,0,0,0,.54-.186.64.64,0,0,1,.151-.129c.036-.018.2.1.257.14a.751.751,0,0,0,.4.185.794.794,0,0,0,.374-.146.813.813,0,0,1,.483-.165,2.816,2.816,0,0,1,.44.126,1.338,1.338,0,0,0,.823.123,1.709,1.709,0,0,0,.6-.674l1.271-.195.254-.039-.158-.2a4.786,4.786,0,0,1-.33-2.331,4,4,0,0,1,.49-1.563c.059-.125.111-.235.153-.336a6.975,6.975,0,0,0,1.227,1.167,4.939,4.939,0,0,1,1.6,1.765c.473,1.277-1.495,4.922-1.781,5.222-.069.013-.227.031-.4.05a9.329,9.329,0,0,0-1.7.3c-.583.212-.949,1.109-1.009,1.266a14.8,14.8,0,0,0-7.179-1.1c-2.688.448-4.146,2.527-4.1,5.852v.087a.813.813,0,0,0,.18.624c.179.171.48.192.973.171,1.473-.067,1.6.188,1.611.218.032.1-.161.3-.327.422l-.107.039.009.025C45,62.311,36.555,62.6,34.389,62.6h-.053l-.011.008c-2.242,0-10.58-.306-12.78-1.727l.009-.026-.107-.038c-.185-.134-.358-.33-.328-.422.01-.029.138-.284,1.61-.218.493.021.794,0,.972-.17a.813.813,0,0,0,.179-.624V59.3c.042-3.325-1.416-5.4-4.1-5.851-2.453-.409-4.954.326-7.236,1.123-.022-.061-.4-1.06-1.017-1.285a9.313,9.313,0,0,0-1.7-.3c-.171-.019-.328-.038-.4-.051-.286-.3-2.253-3.945-1.779-5.222a4.94,4.94,0,0,1,1.6-1.766,6.965,6.965,0,0,0,1.225-1.166c.042.1.094.211.153.335a4,4,0,0,1,.491,1.563,4.806,4.806,0,0,1-.329,2.332l-.157.2.253.039,1.269.195a1.722,1.722,0,0,0,.607.674A1.334,1.334,0,0,0,13.58,50a2.839,2.839,0,0,1,.442-.127.813.813,0,0,1,.48.164.794.794,0,0,0,.375.146.738.738,0,0,0,.4-.185c.061-.043.222-.158.258-.14a.639.639,0,0,1,.15.129.47.47,0,0,0,.54.185c.055-.022.147-.073.334-.177.646-.362,2.16-1.209,2.987-1.051.731.139.884-.518,1.019-1.1.108-.463.22-.942.576-1.136a1.63,1.63,0,0,0,.223-.144Z" transform="translate(0 -13.898)" fill="#fff"/>
            <path id="Path_595" data-name="Path 595" d="M92.551,72.915h24.783V85.682s0,10.256-12.4,13.761c0,0-12.383-3.366-12.383-13.761Z" transform="translate(-70.476 -55.524)" fill="#fff"/>
          </g>
        </g>
      </g>
    </g>
    <text id="chip" transform="translate(309.252 246.442)" fill="#fff" font-size="15" font-family="Arial-BoldItalicMT, Arial" font-weight="700" font-style="italic"><tspan x="0" y="0">chip</tspan></text>
    <g id="Group_1157" data-name="Group 1157">
      <g id="Group_1159" data-name="Group 1159">
        <path id="Path_590" data-name="Path 590" d="M0-1H47.6" transform="translate(301.338 233.503)" fill="none" stroke="#fff" stroke-width="3"/>
        <rect id="Rectangle_640" data-name="Rectangle 640" width="452.436" height="282.025" rx="21.072" transform="translate(0.636 0.635)" fill="none" stroke="#fff" stroke-miterlimit="10" stroke-width="3"/>
      </g>
    </g>
  </g>
</svg>
