<svg xmlns="http://www.w3.org/2000/svg" width="93.26" height="63.933" viewBox="0 0 93.26 63.933">
  <g id="Group_1142" data-name="Group 1142" transform="translate(-52.311 -582.162)">
    <g id="Group_1139" data-name="Group 1139" transform="translate(63.197 590.186)">
      <g id="_3102978ec95b20ace61be830ce3d58fe" data-name="3102978ec95b20ace61be830ce3d58fe" transform="translate(16.776 18.394)">
        <path id="Path_569" data-name="Path 569" d="M4.857,33.55H44.264a1.128,1.128,0,0,0,0-2.19H4.857a1.128,1.128,0,0,0,0,2.19Z" transform="translate(-4 -15.103)" fill="#3b434f"/>
        <g id="_25b328d3a861d6faf74bdc2d48d0dfbc" data-name="25b328d3a861d6faf74bdc2d48d0dfbc" transform="translate(5.926 0)">
          <path id="Path_578" data-name="Path 578" d="M17.779,18a1.014,1.014,0,0,0-.695.306l-4.637,4.632a2.972,2.972,0,0,0-.7,1.125H4.026a1.009,1.009,0,1,0,0,2.018h7.72a2.979,2.979,0,0,0,.7,1.137,3.049,3.049,0,0,0,4.285,0l2.858-2.855a2.576,2.576,0,0,0,.59.838,3.046,3.046,0,0,0,4.283,0l1.148-1.147h2.617a1.009,1.009,0,1,0,0-2.017H25.194a1.01,1.01,0,0,0-.714.295l-1.444,1.443a1.009,1.009,0,1,1-1.428-1.427l.6-.6a1.009,1.009,0,0,0-1.428-1.427l-.6.6-4.875,4.871a1.01,1.01,0,1,1-1.43-1.427l4.637-4.632A1.009,1.009,0,0,0,17.778,18Z" transform="translate(-3.016 -18)" fill="#3b434f"/>
        </g>
      </g>
      <g id="Rectangle_633" data-name="Rectangle 633" transform="translate(0 0)" fill="none" stroke="#3b434f" stroke-width="2">
        <rect width="74.445" height="47.93" rx="4" stroke="none"/>
        <rect x="1" y="1" width="72.445" height="45.93" rx="3" fill="none"/>
      </g>
    </g>
    <g id="Group_1140" data-name="Group 1140" transform="translate(53.061 582.912)">
      <g id="Group_1130" data-name="Group 1130" transform="translate(74.245 0)">
        <g id="Group_1124" data-name="Group 1124" transform="translate(0 0)">
          <path id="Path_567" data-name="Path 567" d="M17.515,18.015V9.935A9.434,9.434,0,0,0,8.08.5H0" transform="translate(0 -0.5)" fill="none" stroke="#3b434f" stroke-linecap="round" stroke-miterlimit="10" stroke-width="1.5"/>
        </g>
      </g>
      <g id="Group_1131" data-name="Group 1131" transform="translate(17.515 62.433) rotate(180)">
        <g id="Group_1124-2" data-name="Group 1124" transform="translate(0 0)">
          <path id="Path_567-2" data-name="Path 567" d="M17.515,17.515V9.435A9.434,9.434,0,0,0,8.08,0H0" fill="none" stroke="#3b434f" stroke-linecap="round" stroke-miterlimit="10" stroke-width="1.5"/>
        </g>
      </g>
      <g id="Group_1132" data-name="Group 1132" transform="translate(0 17.515) rotate(-90)">
        <g id="Group_1124-3" data-name="Group 1124" transform="translate(0 0)">
          <path id="Path_567-3" data-name="Path 567" d="M17.515,17.515V9.435A9.434,9.434,0,0,0,8.08,0H0" fill="none" stroke="#3b434f" stroke-linecap="round" stroke-miterlimit="10" stroke-width="1.5"/>
        </g>
      </g>
      <g id="Group_1133" data-name="Group 1133" transform="translate(91.76 44.918) rotate(90)">
        <g id="Group_1124-4" data-name="Group 1124" transform="translate(0 0)">
          <path id="Path_567-4" data-name="Path 567" d="M17.515,17.515V9.435A9.434,9.434,0,0,0,8.08,0H0" fill="none" stroke="#3b434f" stroke-linecap="round" stroke-miterlimit="10" stroke-width="1.5"/>
        </g>
      </g>
    </g>
    <g id="Group_1138" data-name="Group 1138" transform="translate(57.355 585.81)">
      <rect id="Rectangle_634" data-name="Rectangle 634" width="11.218" height="9.178" transform="translate(2.782 4.376)" fill="#fff"/>
      <g id="_9c6083fa337da8bd58576270ed766423" data-name="9c6083fa337da8bd58576270ed766423">
        <circle id="Ellipse_72" data-name="Ellipse 72" cx="2.444" cy="2.444" r="2.444" transform="translate(6.721 6.721)" fill="#3b434f"/>
        <path id="Path_574" data-name="Path 574" d="M9.346,4l-1.4,1.527H5.527A1.527,1.527,0,0,0,4,7.055v9.164a1.527,1.527,0,0,0,1.527,1.527H17.747a1.527,1.527,0,0,0,1.527-1.527V7.055a1.527,1.527,0,0,0-1.527-1.527H15.326L13.928,4Zm2.291,11.455a3.818,3.818,0,1,1,3.818-3.818A3.82,3.82,0,0,1,11.637,15.455Z" transform="translate(-2.473 -2.473)" fill="#3b434f"/>
        <path id="Path_575" data-name="Path 575" d="M0,0H18.329V18.329H0Z" fill="none"/>
      </g>
    </g>
  </g>
</svg>
