<svg xmlns="http://www.w3.org/2000/svg" width="93.832" height="64.323" viewBox="0 0 93.832 64.323">
  <g id="Group_1141" data-name="Group 1141" transform="translate(-52.311 -447.162)">
    <g id="Group_1135" data-name="Group 1135" transform="translate(63.648 455.675)">
      <g id="_3102978ec95b20ace61be830ce3d58fe" data-name="3102978ec95b20ace61be830ce3d58fe" transform="translate(6.362 9.171)">
        <path id="Path_569" data-name="Path 569" d="M5.248,37.464H22.72a1.248,1.248,0,0,0,1.248-1.248v-3.07a4.128,4.128,0,0,0-2.778-3.921l-3.045-1.208V25.943a5.011,5.011,0,0,0,.881-2.84l-.012-.946.542-3.015a2.947,2.947,0,0,0-2.416-3.432l-4-.669a2.9,2.9,0,0,0-3.22,1.9,2.613,2.613,0,0,0-1.488,2.938L8.9,22.089,8.945,23.1a5.025,5.025,0,0,0,.881,2.843l0,.01v2.064L6.845,29.2A4.161,4.161,0,0,0,4,33.146v3.07A1.248,1.248,0,0,0,5.248,37.464Zm6.991-19.551a.419.419,0,0,1,.484-.412l4.006.669a.451.451,0,0,1,.367.527l-.562,3.217,0,.407V23.1a2.546,2.546,0,1,1-5.092,0l-.01-.914-.439-2.98a1.293,1.293,0,0,0,1.25-1.3ZM6.5,33.146a1.7,1.7,0,0,1,1.2-1.6l3.831-1.52a1.248,1.248,0,0,0,.786-1.161V27.84a4.7,4.7,0,0,0,3.33,0v1.023a1.248,1.248,0,0,0,.786,1.161l3.9,1.545a1.66,1.66,0,0,1,1.141,1.577v1.822H6.5ZM27.712,22.488H62.656A1.248,1.248,0,0,0,63.9,21.24V16.248A1.248,1.248,0,0,0,62.656,15H27.712a1.248,1.248,0,0,0-1.248,1.248V21.24A1.248,1.248,0,0,0,27.712,22.488ZM28.96,17.5H61.408v2.5H28.96ZM27.712,27.48h2.5a1.248,1.248,0,1,0,0-2.5h-2.5a1.248,1.248,0,1,0,0,2.5Zm0,4.992h2.5a1.248,1.248,0,1,0,0-2.5h-2.5a1.248,1.248,0,0,0,0,2.5Zm0,4.992h2.5a1.248,1.248,0,1,0,0-2.5h-2.5a1.248,1.248,0,0,0,0,2.5Zm34.944-12.48H35.2a1.248,1.248,0,1,0,0,2.5H62.656a1.248,1.248,0,1,0,0-2.5Zm0,4.992H35.2a1.248,1.248,0,1,0,0,2.5H62.656a1.248,1.248,0,1,0,0-2.5Zm0,4.992H35.2a1.248,1.248,0,1,0,0,2.5H62.656a1.248,1.248,0,1,0,0-2.5ZM5.248,42.456H62.656a1.248,1.248,0,1,0,0-2.5H5.248a1.248,1.248,0,0,0,0,2.5Z" transform="translate(-4 -15)" fill="#3b434f"/>
      </g>
      <g id="Rectangle_633" data-name="Rectangle 633" transform="translate(0.352 -0.029)" fill="none" stroke="#3b434f" stroke-width="2">
        <rect width="74" height="47" rx="4" stroke="none"/>
        <rect x="1" y="1" width="72" height="45" rx="3" fill="none"/>
      </g>
    </g>
    <g id="Group_1136" data-name="Group 1136" transform="translate(53.061 447.912)">
      <g id="Group_1130" data-name="Group 1130" transform="translate(74.708 0)">
        <g id="Group_1124" data-name="Group 1124" transform="translate(0 0)">
          <path id="Path_567" data-name="Path 567" d="M17.624,18.124V9.994A9.493,9.493,0,0,0,8.13.5H0" transform="translate(0 -0.5)" fill="none" stroke="#3b434f" stroke-linecap="round" stroke-miterlimit="10" stroke-width="1.5"/>
        </g>
      </g>
      <g id="Group_1131" data-name="Group 1131" transform="translate(17.624 62.823) rotate(180)">
        <g id="Group_1124-2" data-name="Group 1124" transform="translate(0 0)">
          <path id="Path_567-2" data-name="Path 567" d="M17.624,17.624V9.494A9.493,9.493,0,0,0,8.13,0H0" fill="none" stroke="#3b434f" stroke-linecap="round" stroke-miterlimit="10" stroke-width="1.5"/>
        </g>
      </g>
      <g id="Group_1132" data-name="Group 1132" transform="translate(0 17.624) rotate(-90)">
        <g id="Group_1124-3" data-name="Group 1124" transform="translate(0 0)">
          <path id="Path_567-3" data-name="Path 567" d="M17.624,17.624V9.494A9.493,9.493,0,0,0,8.13,0H0" fill="none" stroke="#3b434f" stroke-linecap="round" stroke-miterlimit="10" stroke-width="1.5"/>
        </g>
      </g>
      <g id="Group_1133" data-name="Group 1133" transform="translate(92.332 45.199) rotate(90)">
        <g id="Group_1124-4" data-name="Group 1124" transform="translate(0 0)">
          <path id="Path_567-4" data-name="Path 567" d="M17.624,17.624V9.494A9.493,9.493,0,0,0,8.13,0H0" fill="none" stroke="#3b434f" stroke-linecap="round" stroke-miterlimit="10" stroke-width="1.5"/>
        </g>
      </g>
    </g>
    <g id="Group_1137" data-name="Group 1137" transform="translate(57.382 450.828)">
      <rect id="Rectangle_634" data-name="Rectangle 634" width="10" height="9" transform="translate(3.618 4.818)" fill="#fff"/>
      <g id="_9c6083fa337da8bd58576270ed766423" data-name="9c6083fa337da8bd58576270ed766423">
        <circle id="Ellipse_72" data-name="Ellipse 72" cx="2.459" cy="2.459" r="2.459" transform="translate(6.762 6.762)" fill="#3b434f"/>
        <path id="Path_574" data-name="Path 574" d="M9.379,4,7.973,5.537H5.537A1.536,1.536,0,0,0,4,7.074V16.3a1.536,1.536,0,0,0,1.537,1.537h12.3A1.536,1.536,0,0,0,19.369,16.3V7.074a1.536,1.536,0,0,0-1.537-1.537H15.4L13.99,4Zm2.305,11.527a3.842,3.842,0,1,1,3.842-3.842A3.844,3.844,0,0,1,11.685,15.527Z" transform="translate(-2.463 -2.463)" fill="#3b434f"/>
        <path id="Path_575" data-name="Path 575" d="M0,0H18.443V18.443H0Z" fill="none"/>
      </g>
    </g>
  </g>
</svg>
