<svg xmlns="http://www.w3.org/2000/svg" xmlns:xlink="http://www.w3.org/1999/xlink" width="455.436" height="285.025" viewBox="0 0 455.436 285.025">
  <defs>
    <clipPath id="clip-path">
      <rect id="Rectangle_639" data-name="Rectangle 639" width="453.708" height="283.295" fill="none"/>
    </clipPath>
  </defs>
  <g id="Group_1160" data-name="Group 1160" transform="translate(-40.782 -298.143)">
    <path id="_053c17faedbf11da210fbf82a097a35b" data-name="053c17faedbf11da210fbf82a097a35b" d="M43.543,4H13.169A9.182,9.182,0,0,0,4,13.169V43.543a9.214,9.214,0,0,0,9.2,9.2H43.575a9.182,9.182,0,0,0,9.169-9.169V13.2A9.214,9.214,0,0,0,43.543,4ZM22.279,7.047H34.466V19.233H22.279ZM19.233,49.7H13.2a6.162,6.162,0,0,1-6.156-6.156V37.512H19.233Zm15.233,0H22.279V37.512H34.466ZM49.7,43.575A6.129,6.129,0,0,1,43.575,49.7H37.512V37.512H49.7Zm0-9.11H7.047v-21.3a6.129,6.129,0,0,1,6.123-6.123h6.063V20.758a1.522,1.522,0,0,0,1.523,1.522H49.7Zm0-15.233H37.512V7.047h6.031A6.162,6.162,0,0,1,49.7,13.2Z" transform="translate(99 406)" fill="#fff"/>
    <g id="Group_1158" data-name="Group 1158" transform="translate(41.646 299.008)">
      <g id="Group_1157" data-name="Group 1157">
        <g id="Group_1159" data-name="Group 1159">
          <rect id="Rectangle_640" data-name="Rectangle 640" width="452.436" height="282.025" rx="21.072" transform="translate(0.636 0.635)" fill="none" stroke="#fff" stroke-miterlimit="10" stroke-width="3"/>
        </g>
      </g>
    </g>
    <path id="_3c94409ec1cfdb0162a976fb284a6a06" data-name="3c94409ec1cfdb0162a976fb284a6a06" d="M1.671,132.935a2.091,2.091,0,0,0,2.544-1.471C8.5,115.489,25.9,111.349,36.3,108.872a41.868,41.868,0,0,0,6-1.688c11.847-5.142,15.708-13.414,16.864-19.449a2.078,2.078,0,0,0-.686-1.966C52.308,80.444,47.1,72.451,43.82,63.256a2.045,2.045,0,0,0-.428-.711c-4.344-4.722-6.838-9.714-6.838-13.692a5.351,5.351,0,0,1,2.852-5.059,2.078,2.078,0,0,0,1.01-1.7c.919-21.174,16-37.843,34.5-37.951l.445.029c18.589.258,33.574,17.284,34.11,38.757a2.07,2.07,0,0,0,.74,1.534,5.344,5.344,0,0,1,1.908,4.394c0,3.33-1.775,7.424-4.992,11.522a2.17,2.17,0,0,0-.349.657C103.449,71.582,97.48,80.889,90.4,86.583a2.087,2.087,0,0,0-.74,2.008c1.156,6.031,5.017,14.3,16.864,19.449a39.029,39.029,0,0,0,6.331,1.675c10.3,2.228,27.526,5.965,31.753,21.748a2.079,2.079,0,0,0,4.015-1.081c-4.884-18.236-24.4-22.463-34.887-24.732a38.626,38.626,0,0,1-5.553-1.43c-7.732-3.359-12.5-8.476-14.179-15.234,7.179-6.164,13.185-15.675,16.619-26.341,3.645-4.739,5.649-9.619,5.649-13.788a9.489,9.489,0,0,0-2.677-6.913C112.61,18.65,95.987.306,75.357.011L74.738,0C54.482.111,37.789,17.973,36.33,40.864a9.4,9.4,0,0,0-3.924,8c0,4.917,2.781,10.8,7.648,16.195C43.417,74.3,48.63,82.414,54.836,88.1c-1.675,6.784-6.443,11.917-14.191,15.28a40.894,40.894,0,0,1-5.308,1.463C24.774,107.35,5.121,112.027.2,130.391a2.078,2.078,0,0,0,1.471,2.544Z" transform="translate(320.042 366.997)" fill="#fff"/>
  </g>
</svg>
