<svg xmlns="http://www.w3.org/2000/svg" width="214" height="59" viewBox="0 0 214 59">
  <g id="Group_975" data-name="Group 975" transform="translate(-133 -480)">
    <rect id="Rectangle_218" data-name="Rectangle 218" width="214" height="59" rx="8" transform="translate(133 480)" fill="#3074f2" opacity="0.999"/>
    <path id="Path_2993" data-name="Path 2993" d="M-51.96-1.1A1.179,1.179,0,0,0-50.76.1a1.2,1.2,0,0,0,1.22-1.2V-9.48l3.4,5.1a1.193,1.193,0,0,0,1.02.64,1.2,1.2,0,0,0,1.04-.64l3.42-5.14v8.4A1.238,1.238,0,0,0-39.44.1,1.217,1.217,0,0,0-38.2-1.12V-12.84a1.233,1.233,0,0,0-1.24-1.24h-.26a1.237,1.237,0,0,0-1.12.64l-4.26,6.66-4.24-6.64a1.3,1.3,0,0,0-1.14-.66h-.26a1.233,1.233,0,0,0-1.24,1.24Zm18.9-4.92A2.858,2.858,0,0,1-30.32-8.8a2.742,2.742,0,0,1,2.68,2.78Zm6.82,4.86a1.057,1.057,0,0,0,.32-.74.952.952,0,0,0-.96-.98.9.9,0,0,0-.62.22,3.8,3.8,0,0,1-2.5.92,2.948,2.948,0,0,1-3.04-2.68h6.62a1.132,1.132,0,0,0,1.14-1.16,5,5,0,0,0-5.02-5.2,5.241,5.241,0,0,0-5.16,5.5v.04A5.269,5.269,0,0,0-30.04.24,5.422,5.422,0,0,0-26.24-1.16ZM-19.18.2c2.2,0,3.92-1.1,3.92-3.32v-.04c0-1.9-1.74-2.6-3.28-3.08-1.24-.4-2.38-.72-2.38-1.5v-.04c0-.6.54-1.04,1.48-1.04a5.759,5.759,0,0,1,2.48.72.95.95,0,0,0,.48.12.974.974,0,0,0,1-.98,1.026,1.026,0,0,0-.58-.92,7.259,7.259,0,0,0-3.32-.86c-2.1,0-3.76,1.22-3.76,3.22v.04c0,2.02,1.74,2.66,3.3,3.1,1.24.38,2.36.66,2.36,1.48v.04c0,.7-.6,1.14-1.64,1.14a5.574,5.574,0,0,1-3.04-1.02,1.056,1.056,0,0,0-.52-.14.969.969,0,0,0-.98.98.928.928,0,0,0,.46.84A7.217,7.217,0,0,0-19.18.2Zm9.82,0c2.2,0,3.92-1.1,3.92-3.32v-.04c0-1.9-1.74-2.6-3.28-3.08-1.24-.4-2.38-.72-2.38-1.5v-.04c0-.6.54-1.04,1.48-1.04a5.759,5.759,0,0,1,2.48.72.95.95,0,0,0,.48.12.974.974,0,0,0,1-.98,1.026,1.026,0,0,0-.58-.92,7.259,7.259,0,0,0-3.32-.86c-2.1,0-3.76,1.22-3.76,3.22v.04c0,2.02,1.74,2.66,3.3,3.1,1.24.38,2.36.66,2.36,1.48v.04c0,.7-.6,1.14-1.64,1.14a5.574,5.574,0,0,1-3.04-1.02,1.056,1.056,0,0,0-.52-.14.969.969,0,0,0-.98.98.928.928,0,0,0,.46.84A7.217,7.217,0,0,0-9.36.2Zm8.22-6.22A2.858,2.858,0,0,1,1.6-8.8,2.742,2.742,0,0,1,4.28-6.02ZM5.68-1.16A1.057,1.057,0,0,0,6-1.9a.952.952,0,0,0-.96-.98.9.9,0,0,0-.62.22,3.8,3.8,0,0,1-2.5.92A2.948,2.948,0,0,1-1.12-4.42H5.5A1.132,1.132,0,0,0,6.64-5.58a5,5,0,0,0-5.02-5.2,5.241,5.241,0,0,0-5.16,5.5v.04A5.269,5.269,0,0,0,1.88.24,5.422,5.422,0,0,0,5.68-1.16Zm3.44.06A1.191,1.191,0,0,0,10.32.1a1.2,1.2,0,0,0,1.22-1.2V-5.96a2.349,2.349,0,0,1,2.38-2.62c1.44,0,2.26.94,2.26,2.58v4.9A1.2,1.2,0,0,0,17.4.1a1.179,1.179,0,0,0,1.2-1.2V-6.74c0-2.44-1.38-4.04-3.76-4.04a3.828,3.828,0,0,0-3.3,1.84v-.52a1.212,1.212,0,0,0-1.22-1.22,1.2,1.2,0,0,0-1.2,1.22Zm17.1,4.34a5.945,5.945,0,0,0,4.34-1.42A5.4,5.4,0,0,0,31.9-2.16v-7.3a1.212,1.212,0,0,0-1.22-1.22,1.2,1.2,0,0,0-1.2,1.2v.5a4.557,4.557,0,0,0-3.7-1.8,4.762,4.762,0,0,0-4.8,4.96v.04a4.745,4.745,0,0,0,4.8,4.94A4.423,4.423,0,0,0,29.5-2.78v.82c0,2.12-1.18,3.24-3.34,3.24A6.457,6.457,0,0,1,22.92.44a.953.953,0,0,0-.44-.1,1.02,1.02,0,0,0-1.02,1,.991.991,0,0,0,.68.96A9.123,9.123,0,0,0,26.22,3.24Zm.2-6.14a2.876,2.876,0,0,1-3-2.9v-.04a2.853,2.853,0,0,1,3-2.9,2.949,2.949,0,0,1,3.1,2.9v.04A2.949,2.949,0,0,1,26.42-2.9ZM36.76-6.02A2.858,2.858,0,0,1,39.5-8.8a2.742,2.742,0,0,1,2.68,2.78Zm6.82,4.86a1.057,1.057,0,0,0,.32-.74.952.952,0,0,0-.96-.98.9.9,0,0,0-.62.22,3.8,3.8,0,0,1-2.5.92,2.948,2.948,0,0,1-3.04-2.68H43.4a1.132,1.132,0,0,0,1.14-1.16,5,5,0,0,0-5.02-5.2,5.241,5.241,0,0,0-5.16,5.5v.04A5.269,5.269,0,0,0,39.78.24,5.422,5.422,0,0,0,43.58-1.16Zm3.44.06A1.191,1.191,0,0,0,48.22.1a1.208,1.208,0,0,0,1.22-1.2V-4.22c0-2.5,1.18-3.82,2.9-4.12A1.136,1.136,0,0,0,53.3-9.5a1.123,1.123,0,0,0-1.2-1.2c-1.06,0-2.1,1-2.66,2.32V-9.46a1.212,1.212,0,0,0-1.22-1.22,1.2,1.2,0,0,0-1.2,1.22Z" transform="translate(252 516)" fill="#fff"/>
    <g id="Group_977" data-name="Group 977" transform="translate(148.573 496.225)">
      <path id="Path_301" data-name="Path 301" d="M20.317,6.162a12.22,12.22,0,0,0-7.174,20.109l-.908,6.063,6.808-2.341A12.23,12.23,0,1,0,20.317,6.162Z" transform="translate(-9.512 -5.389)" fill="#fff"/>
      <path id="Path_302" data-name="Path 302" d="M10.724,31.551a.459.459,0,0,1-.459-.528l.893-5.923a12.818,12.818,0,0,1,7.673-20.92h0a12.83,12.83,0,1,1,4.247,25.305,12.68,12.68,0,0,1-5.464-.278l-6.741,2.319A.5.5,0,0,1,10.724,31.551ZM18.989,5.086A11.893,11.893,0,0,0,12,24.663a.459.459,0,0,1,.11.37l-.82,5.37,6.16-2.119a.445.445,0,0,1,.273,0,11.905,11.905,0,1,0,1.258-23.2Z" transform="translate(-8.126 -4)" fill="#3074f2"/>
      <path id="Path_303" data-name="Path 303" d="M.06,12,4.538,2.608c.087-.181.242-.213.352-.072L7.072,5.341A.183.183,0,0,0,7.4,5.32L10.869.113a.188.188,0,0,1,.343,0A.688.688,0,0,1,11.254.7L7.4,10.62a.3.3,0,0,1-.172.192.185.185,0,0,1-.2-.083L4.842,7.923a.177.177,0,0,0-.3,0L.4,12.653c-.107.123-.25.093-.336-.071A.7.7,0,0,1,.06,12Z" transform="translate(9.096 5.321) rotate(16)" fill="#3074f2"/>
    </g>
  </g>
</svg>
