<svg xmlns="http://www.w3.org/2000/svg" width="214" height="59" viewBox="0 0 214 59">
  <g id="Group_978" data-name="Group 978" transform="translate(-143 -794)">
    <g id="Group_974" data-name="Group 974" transform="translate(10 314)">
      <rect id="Rectangle_218" data-name="Rectangle 218" width="214" height="59" rx="8" transform="translate(133 480)" fill="#4caf50" opacity="0.999"/>
      <path id="Path_2992" data-name="Path 2992" d="M-48.1-.82A1.365,1.365,0,0,0-46.82.2h.24A1.347,1.347,0,0,0-45.3-.82l3.12-9.14,3.12,9.14A1.325,1.325,0,0,0-37.8.2h.24A1.371,1.371,0,0,0-36.28-.82l4.14-11.6a1.41,1.41,0,0,0,.12-.5,1.2,1.2,0,0,0-1.22-1.18,1.255,1.255,0,0,0-1.2.88l-3.22,9.64-3.16-9.58a1.28,1.28,0,0,0-1.24-.98h-.18a1.3,1.3,0,0,0-1.24.98l-3.16,9.58-3.22-9.62a1.254,1.254,0,0,0-1.22-.9,1.23,1.23,0,0,0-1.26,1.2,1.287,1.287,0,0,0,.1.48Zm18.22-.28A1.191,1.191,0,0,0-28.68.1a1.2,1.2,0,0,0,1.22-1.2V-5.96a2.349,2.349,0,0,1,2.38-2.62c1.44,0,2.26.94,2.26,2.58v4.9A1.2,1.2,0,0,0-21.6.1a1.179,1.179,0,0,0,1.2-1.2V-6.74c0-2.44-1.38-4.04-3.76-4.04a3.828,3.828,0,0,0-3.3,1.84V-13.5a1.208,1.208,0,0,0-1.22-1.2,1.191,1.191,0,0,0-1.2,1.2ZM-14.44.22A4.292,4.292,0,0,0-11-1.32v.4A1.094,1.094,0,0,0-9.82.1,1.153,1.153,0,0,0-8.64-1.06v-5.2A4.382,4.382,0,0,0-9.78-9.52a4.732,4.732,0,0,0-3.5-1.18,9.052,9.052,0,0,0-3.4.62,1.056,1.056,0,0,0-.66.96,1.007,1.007,0,0,0,1.02,1,1.359,1.359,0,0,0,.38-.06A6.271,6.271,0,0,1-13.6-8.6c1.7,0,2.62.8,2.62,2.3v.26a8.822,8.822,0,0,0-2.84-.44c-2.58,0-4.36,1.12-4.36,3.4v.04C-18.18-.92-16.42.22-14.44.22Zm.68-1.76c-1.16,0-2.06-.58-2.06-1.6v-.04c0-1.1.92-1.76,2.48-1.76a6.709,6.709,0,0,1,2.4.42v.72C-10.94-2.46-12.16-1.54-13.76-1.54ZM-2.3.18A4.814,4.814,0,0,0-.64-.1,1.041,1.041,0,0,0,0-1.04a1.02,1.02,0,0,0-1.02-1,5.721,5.721,0,0,1-.6.06A1.152,1.152,0,0,1-2.92-3.3V-8.48h1.9A1.05,1.05,0,0,0,.04-9.52a1.05,1.05,0,0,0-1.06-1.04h-1.9v-1.8a1.2,1.2,0,0,0-1.2-1.2,1.208,1.208,0,0,0-1.22,1.2v1.8h-.4A1.033,1.033,0,0,0-6.78-9.52,1.033,1.033,0,0,0-5.74-8.48h.4v5.56C-5.34-.6-4.08.18-2.3.18ZM6,.2C8.2.2,9.92-.9,9.92-3.12v-.04c0-1.9-1.74-2.6-3.28-3.08-1.24-.4-2.38-.72-2.38-1.5v-.04c0-.6.54-1.04,1.48-1.04a5.759,5.759,0,0,1,2.48.72.95.95,0,0,0,.48.12.974.974,0,0,0,1-.98,1.026,1.026,0,0,0-.58-.92,7.259,7.259,0,0,0-3.32-.86c-2.1,0-3.76,1.22-3.76,3.22v.04c0,2.02,1.74,2.66,3.3,3.1C6.58-4,7.7-3.72,7.7-2.9v.04c0,.7-.6,1.14-1.64,1.14A5.574,5.574,0,0,1,3.02-2.74a1.056,1.056,0,0,0-.52-.14.969.969,0,0,0-.98.98.928.928,0,0,0,.46.84A7.217,7.217,0,0,0,6,.2Zm5.72-1.24A1.127,1.127,0,0,0,12.86.1,1.183,1.183,0,0,0,14-.68l1.18-2.7h6.8L23.12-.76a1.267,1.267,0,0,0,1.2.86,1.153,1.153,0,0,0,1.16-1.18,1.071,1.071,0,0,0-.14-.52l-5.2-11.6a1.534,1.534,0,0,0-1.46-1h-.12a1.561,1.561,0,0,0-1.48,1L11.88-1.6A1.26,1.26,0,0,0,11.72-1.04Zm4.4-4.52,2.46-5.66,2.46,5.66ZM27.86,2.1a1.21,1.21,0,0,0,2.42,0V-1.64A4.313,4.313,0,0,0,33.88.22c2.5,0,4.9-1.98,4.9-5.48V-5.3c0-3.52-2.42-5.48-4.9-5.48a4.227,4.227,0,0,0-3.6,1.98v-.66a1.212,1.212,0,0,0-1.22-1.22,1.2,1.2,0,0,0-1.2,1.22ZM33.3-1.88a3.184,3.184,0,0,1-3.08-3.38V-5.3A3.184,3.184,0,0,1,33.3-8.68,3.127,3.127,0,0,1,36.32-5.3v.04A3.092,3.092,0,0,1,33.3-1.88ZM41.28,2.1a1.21,1.21,0,0,0,2.42,0V-1.64A4.313,4.313,0,0,0,47.3.22c2.5,0,4.9-1.98,4.9-5.48V-5.3c0-3.52-2.42-5.48-4.9-5.48A4.227,4.227,0,0,0,43.7-8.8v-.66a1.212,1.212,0,0,0-1.22-1.22,1.2,1.2,0,0,0-1.2,1.22Zm5.44-3.98a3.184,3.184,0,0,1-3.08-3.38V-5.3a3.184,3.184,0,0,1,3.08-3.38A3.127,3.127,0,0,1,49.74-5.3v.04A3.092,3.092,0,0,1,46.72-1.88Z" transform="translate(252 516)" fill="#fff"/>
    </g>
    <g id="Group_976" data-name="Group 976" transform="translate(151.341 810.67)">
      <path id="Path_299" data-name="Path 299" d="M12.833,0h-.006A12.822,12.822,0,0,0,2.442,20.35l-1.6,4.766,4.931-1.576A12.828,12.828,0,1,0,12.833,0Z" transform="translate(0)" fill="#fff"/>
      <path id="Path_300" data-name="Path 300" d="M15.675,13.386A2.984,2.984,0,0,1,13.6,14.824c-.554.113-1.277.2-3.711-.767A13.081,13.081,0,0,1,4.61,9.577,5.706,5.706,0,0,1,3.352,6.5a3.2,3.2,0,0,1,1.083-2.48,1.577,1.577,0,0,1,1.083-.366c.131,0,.249.006.355.011.311.013.467.031.673.5.256.592.878,2.054.952,2.2a.586.586,0,0,1,.045.551A1.762,1.762,0,0,1,7.2,7.4c-.156.173-.3.306-.461.492-.143.162-.3.335-.124.634a9.106,9.106,0,0,0,1.719,2.054,7.862,7.862,0,0,0,2.484,1.474.69.69,0,0,0,.747-.113,12.386,12.386,0,0,0,.828-1.055.6.6,0,0,1,.76-.222c.286.1,1.8.815,2.111.964s.516.222.592.348A2.447,2.447,0,0,1,15.675,13.386Z" transform="translate(3.383 3.693)" fill="#76bf00"/>
    </g>
  </g>
</svg>
